<svg xmlns="http://www.w3.org/2000/svg" viewBox="0 0 200 150">
  <g transform="translate(60, 75)">
    <ellipse cx="0" cy="0" rx="18" ry="12" fill="#E8D5B7"/>
    <circle cx="-10" cy="-3" r="8" fill="#E8D5B7"/>
    <ellipse cx="2" cy="-2" rx="2" ry="3" fill="#2C2C2C"/>
    <path d="M 10 0 Q 18 -5 25 -3 Q 20 0 18 5 Q 15 3 10 0 Z" fill="#D4A574"/>
    <path d="M -15 -5 Q -20 -8 -22 -5 L -18 -3 Z" fill="#C9A77A"/>
  </g>
  <g transform="translate(140, 75) scale(-1, 1)">
    <ellipse cx="0" cy="0" rx="18" ry="12" fill="#E8D5B7"/>
    <circle cx="-10" cy="-3" r="8" fill="#E8D5B7"/>
    <ellipse cx="2" cy="-2" rx="2" ry="3" fill="#2C2C2C"/>
    <path d="M 10 0 Q 18 -5 25 -3 Q 20 0 18 5 Q 15 3 10 0 Z" fill="#D4A574"/>
    <path d="M -15 -5 Q -20 -8 -22 -5 L -18 -3 Z" fill="#C9A77A"/>
  </g>
  <path d="M 85 70 Q 100 60 115 70" stroke="#FF6B9D" stroke-width="2" fill="none"/>
  <circle cx="95" cy="65" r="2" fill="#FF6B9D"/>
  <circle cx="105" cy="65" r="2" fill="#FF6B9D"/>
</svg>
