<svg xmlns="http://www.w3.org/2000/svg" viewBox="0 0 200 200">
  <defs>
    <radialGradient id="camelliaGrad">
      <stop offset="0%" style="stop-color:#FFE4E7;stop-opacity:1" />
      <stop offset="100%" style="stop-color:#FFB6C1;stop-opacity:1" />
    </radialGradient>
  </defs>
  <g transform="translate(100, 100)">
    <ellipse cx="0" cy="-32" rx="18" ry="28" fill="url(#camelliaGrad)" transform="rotate(0 0 0)" opacity="0.9"/>
    <ellipse cx="0" cy="-32" rx="18" ry="28" fill="url(#camelliaGrad)" transform="rotate(45 0 0)" opacity="0.9"/>
    <ellipse cx="0" cy="-32" rx="18" ry="28" fill="url(#camelliaGrad)" transform="rotate(90 0 0)" opacity="0.9"/>
    <ellipse cx="0" cy="-32" rx="18" ry="28" fill="url(#camelliaGrad)" transform="rotate(135 0 0)" opacity="0.9"/>
    <ellipse cx="0" cy="-32" rx="18" ry="28" fill="url(#camelliaGrad)" transform="rotate(180 0 0)" opacity="0.9"/>
    <ellipse cx="0" cy="-32" rx="18" ry="28" fill="url(#camelliaGrad)" transform="rotate(225 0 0)" opacity="0.9"/>
    <ellipse cx="0" cy="-32" rx="18" ry="28" fill="url(#camelliaGrad)" transform="rotate(270 0 0)" opacity="0.9"/>
    <ellipse cx="0" cy="-32" rx="18" ry="28" fill="url(#camelliaGrad)" transform="rotate(315 0 0)" opacity="0.9"/>
    <circle cx="0" cy="0" r="12" fill="#FFD700"/>
    <circle cx="0" cy="0" r="6" fill="#FFA500"/>
  </g>
</svg>
