<svg xmlns="http://www.w3.org/2000/svg" viewBox="0 0 200 200">
  <g transform="translate(100, 100)">
    <path d="M -20 -15 Q -15 -25 -10 -20 Q -5 -15 0 -18 Q 5 -15 10 -20 Q 15 -25 20 -15 Q 18 -10 15 -5 Q 10 0 0 0 Q -10 0 -15 -5 Q -18 -10 -20 -15 Z" fill="#FF69B4" opacity="0.8"/>
    <path d="M -15 -10 Q -10 -18 -5 -15 Q 0 -12 5 -15 Q 10 -18 15 -10 Q 13 -5 10 0 Q 5 3 0 2 Q -5 3 -10 0 Q -13 -5 -15 -10 Z" fill="#FFB6C1" opacity="0.9"/>
    <path d="M -10 -5 Q -5 -12 0 -10 Q 5 -12 10 -5 Q 8 0 5 3 Q 0 5 -5 3 Q -8 0 -10 -5 Z" fill="#FFC0CB"/>
    <circle cx="0" cy="0" r="4" fill="#FF1493"/>
  </g>
</svg>
