<svg xmlns="http://www.w3.org/2000/svg" viewBox="0 0 200 200">
  <g transform="translate(70, 80)">
    <path d="M -10 -40 L -8 0 L 8 0 L 10 -40 Z" fill="none" stroke="#E8D5B7" stroke-width="2"/>
    <rect x="-3" y="0" width="6" height="35" fill="#C9A959"/>
    <ellipse cx="0" cy="35" rx="8" ry="3" fill="#C9A959"/>
    <path d="M -8 -40 Q -5 -50 0 -48 Q 5 -50 8 -40" fill="#FFD700" opacity="0.3"/>
  </g>
  <g transform="translate(130, 80)">
    <path d="M -10 -40 L -8 0 L 8 0 L 10 -40 Z" fill="none" stroke="#E8D5B7" stroke-width="2"/>
    <rect x="-3" y="0" width="6" height="35" fill="#C9A959"/>
    <ellipse cx="0" cy="35" rx="8" ry="3" fill="#C9A959"/>
    <path d="M -8 -40 Q -5 -50 0 -48 Q 5 -50 8 -40" fill="#FFD700" opacity="0.3"/>
  </g>
  <circle cx="90" cy="50" r="2" fill="#FFD700" opacity="0.6"/>
  <circle cx="100" cy="45" r="2" fill="#FFD700" opacity="0.6"/>
  <circle cx="110" cy="50" r="2" fill="#FFD700" opacity="0.6"/>
</svg>
