<svg xmlns="http://www.w3.org/2000/svg" viewBox="0 0 200 200">
  <defs>
    <radialGradient id="dahliaGrad">
      <stop offset="0%" style="stop-color:#FFE5B4;stop-opacity:1" />
      <stop offset="100%" style="stop-color:#FF8C42;stop-opacity:1" />
    </radialGradient>
  </defs>
  <g transform="translate(100, 100)">
    <ellipse cx="0" cy="-30" rx="8" ry="18" fill="#FF8C42" transform="rotate(0 0 0)"/>
    <ellipse cx="0" cy="-30" rx="8" ry="18" fill="#FF8C42" transform="rotate(30 0 0)"/>
    <ellipse cx="0" cy="-30" rx="8" ry="18" fill="#FF8C42" transform="rotate(60 0 0)"/>
    <ellipse cx="0" cy="-30" rx="8" ry="18" fill="#FF8C42" transform="rotate(90 0 0)"/>
    <ellipse cx="0" cy="-30" rx="8" ry="18" fill="#FF8C42" transform="rotate(120 0 0)"/>
    <ellipse cx="0" cy="-30" rx="8" ry="18" fill="#FF8C42" transform="rotate(150 0 0)"/>
    <ellipse cx="0" cy="-30" rx="8" ry="18" fill="#FF8C42" transform="rotate(180 0 0)"/>
    <ellipse cx="0" cy="-30" rx="8" ry="18" fill="#FF8C42" transform="rotate(210 0 0)"/>
    <ellipse cx="0" cy="-30" rx="8" ry="18" fill="#FF8C42" transform="rotate(240 0 0)"/>
    <ellipse cx="0" cy="-30" rx="8" ry="18" fill="#FF8C42" transform="rotate(270 0 0)"/>
    <ellipse cx="0" cy="-30" rx="8" ry="18" fill="#FF8C42" transform="rotate(300 0 0)"/>
    <ellipse cx="0" cy="-30" rx="8" ry="18" fill="#FF8C42" transform="rotate(330 0 0)"/>
    <circle cx="0" cy="0" r="15" fill="url(#dahliaGrad)"/>
    <circle cx="0" cy="0" r="8" fill="#8B4513"/>
  </g>
</svg>
