<svg xmlns="http://www.w3.org/2000/svg" viewBox="0 0 200 200">
  <g transform="translate(100, 100)">
    <ellipse cx="0" cy="-30" rx="8" ry="18" fill="#FFFFFF" transform="rotate(0 0 0)"/>
    <ellipse cx="0" cy="-30" rx="8" ry="18" fill="#FFFFFF" transform="rotate(30 0 0)"/>
    <ellipse cx="0" cy="-30" rx="8" ry="18" fill="#FFFFFF" transform="rotate(60 0 0)"/>
    <ellipse cx="0" cy="-30" rx="8" ry="18" fill="#FFFFFF" transform="rotate(90 0 0)"/>
    <ellipse cx="0" cy="-30" rx="8" ry="18" fill="#FFFFFF" transform="rotate(120 0 0)"/>
    <ellipse cx="0" cy="-30" rx="8" ry="18" fill="#FFFFFF" transform="rotate(150 0 0)"/>
    <ellipse cx="0" cy="-30" rx="8" ry="18" fill="#FFFFFF" transform="rotate(180 0 0)"/>
    <ellipse cx="0" cy="-30" rx="8" ry="18" fill="#FFFFFF" transform="rotate(210 0 0)"/>
    <ellipse cx="0" cy="-30" rx="8" ry="18" fill="#FFFFFF" transform="rotate(240 0 0)"/>
    <ellipse cx="0" cy="-30" rx="8" ry="18" fill="#FFFFFF" transform="rotate(270 0 0)"/>
    <ellipse cx="0" cy="-30" rx="8" ry="18" fill="#FFFFFF" transform="rotate(300 0 0)"/>
    <ellipse cx="0" cy="-30" rx="8" ry="18" fill="#FFFFFF" transform="rotate(330 0 0)"/>
    
    <circle cx="0" cy="0" r="12" fill="#FFD700"/>
  </g>
</svg>