<svg xmlns="http://www.w3.org/2000/svg" viewBox="0 0 200 150">
  <path d="M 50 80 Q 60 70 70 75 L 90 70 Q 100 68 110 70 Q 120 72 125 80 Q 130 90 125 100 Q 120 105 110 105 L 90 100 Q 80 98 75 95 L 50 100 Q 45 95 45 88 Q 45 82 50 80 Z" 
        fill="#F5F5F5" stroke="#E0E0E0" stroke-width="2"/>
  <ellipse cx="65" cy="82" rx="2" ry="3" fill="#2C2C2C"/>
  <path d="M 50 85 Q 30 75 20 80 Q 10 85 15 95 L 25 90 Q 35 87 50 90" 
        fill="#F5F5F5" stroke="#E0E0E0" stroke-width="2"/>
  <path d="M 125 85 Q 145 75 155 80 Q 165 85 160 95 L 150 90 Q 140 87 125 90" 
        fill="#F5F5F5" stroke="#E0E0E0" stroke-width="2"/>
  <ellipse cx="110" cy="80" rx="3" ry="5" fill="#FFCCCC" opacity="0.6"/>
</svg>
