<svg xmlns="http://www.w3.org/2000/svg" viewBox="0 0 300 200">
  <path d="M 150 20 Q 155 100 160 180" stroke="#4A7C59" stroke-width="3" fill="none"/>
  <ellipse cx="145" cy="30" rx="10" ry="6" fill="#4A7C59" transform="rotate(30 145 30)"/><ellipse cx="155" cy="45" rx="10" ry="6" fill="#4A7C59" transform="rotate(-30 155 45)"/><ellipse cx="145" cy="60" rx="10" ry="6" fill="#4A7C59" transform="rotate(30 145 60)"/><ellipse cx="155" cy="75" rx="10" ry="6" fill="#4A7C59" transform="rotate(-30 155 75)"/><ellipse cx="145" cy="90" rx="10" ry="6" fill="#4A7C59" transform="rotate(30 145 90)"/><ellipse cx="155" cy="105" rx="10" ry="6" fill="#4A7C59" transform="rotate(-30 155 105)"/><ellipse cx="145" cy="120" rx="10" ry="6" fill="#4A7C59" transform="rotate(30 145 120)"/><ellipse cx="155" cy="135" rx="10" ry="6" fill="#4A7C59" transform="rotate(-30 155 135)"/><ellipse cx="145" cy="150" rx="10" ry="6" fill="#4A7C59" transform="rotate(30 145 150)"/><ellipse cx="155" cy="165" rx="10" ry="6" fill="#4A7C59" transform="rotate(-30 155 165)"/>
</svg>