<svg xmlns="http://www.w3.org/2000/svg" viewBox="0 0 100 200">
  <!-- Hoja de helecho tropical -->
  
  <!-- Tallo central -->
  <path d="M 50 180 L 50 20" stroke="#4A7C59" stroke-width="2" fill="none"/>
  
  <!-- Hojas izquierdas -->
  <ellipse cx="35" cy="40" rx="15" ry="6" fill="#5F9EA0" opacity="0.8" transform="rotate(-40 35 40)"/>
  <ellipse cx="32" cy="55" rx="17" ry="7" fill="#5F9EA0" opacity="0.8" transform="rotate(-45 32 55)"/>
  <ellipse cx="30" cy="70" rx="18" ry="7" fill="#5F9EA0" opacity="0.8" transform="rotate(-50 30 70)"/>
  <ellipse cx="28" cy="85" rx="19" ry="8" fill="#5F9EA0" opacity="0.8" transform="rotate(-50 28 85)"/>
  <ellipse cx="27" cy="100" rx="20" ry="8" fill="#5F9EA0" opacity="0.8" transform="rotate(-55 27 100)"/>
  <ellipse cx="28" cy="115" rx="19" ry="7" fill="#5F9EA0" opacity="0.8" transform="rotate(-50 28 115)"/>
  <ellipse cx="30" cy="130" rx="17" ry="7" fill="#5F9EA0" opacity="0.8" transform="rotate(-48 30 130)"/>
  <ellipse cx="33" cy="145" rx="15" ry="6" fill="#5F9EA0" opacity="0.8" transform="rotate(-45 33 145)"/>
  <ellipse cx="37" cy="160" rx="12" ry="5" fill="#5F9EA0" opacity="0.8" transform="rotate(-40 37 160)"/>
  
  <!-- Hojas derechas -->
  <ellipse cx="65" cy="40" rx="15" ry="6" fill="#5F9EA0" opacity="0.8" transform="rotate(40 65 40)"/>
  <ellipse cx="68" cy="55" rx="17" ry="7" fill="#5F9EA0" opacity="0.8" transform="rotate(45 68 55)"/>
  <ellipse cx="70" cy="70" rx="18" ry="7" fill="#5F9EA0" opacity="0.8" transform="rotate(50 70 70)"/>
  <ellipse cx="72" cy="85" rx="19" ry="8" fill="#5F9EA0" opacity="0.8" transform="rotate(50 72 85)"/>
  <ellipse cx="73" cy="100" rx="20" ry="8" fill="#5F9EA0" opacity="0.8" transform="rotate(55 73 100)"/>
  <ellipse cx="72" cy="115" rx="19" ry="7" fill="#5F9EA0" opacity="0.8" transform="rotate(50 72 115)"/>
  <ellipse cx="70" cy="130" rx="17" ry="7" fill="#5F9EA0" opacity="0.8" transform="rotate(48 70 130)"/>
  <ellipse cx="67" cy="145" rx="15" ry="6" fill="#5F9EA0" opacity="0.8" transform="rotate(45 67 145)"/>
  <ellipse cx="63" cy="160" rx="12" ry="5" fill="#5F9EA0" opacity="0.8" transform="rotate(40 63 160)"/>
  
  <!-- Punta -->
  <ellipse cx="50" cy="28" rx="8" ry="10" fill="#5F9EA0" opacity="0.9"/>
</svg>
