<svg xmlns="http://www.w3.org/2000/svg" viewBox="0 0 100 200">
  <path d="M 50 180 L 50 20" stroke="#6B7C6B" stroke-width="2" fill="none"/>
  <ellipse cx="35" cy="40" rx="15" ry="6" fill="#6B7C6B" opacity="0.8" transform="rotate(-40 35 40)"/><ellipse cx="65" cy="55" rx="15" ry="6" fill="#6B7C6B" opacity="0.8" transform="rotate(40 65 55)"/><ellipse cx="35" cy="70" rx="15" ry="6" fill="#6B7C6B" opacity="0.8" transform="rotate(-40 35 70)"/><ellipse cx="65" cy="85" rx="15" ry="6" fill="#6B7C6B" opacity="0.8" transform="rotate(40 65 85)"/><ellipse cx="35" cy="100" rx="15" ry="6" fill="#6B7C6B" opacity="0.8" transform="rotate(-40 35 100)"/><ellipse cx="65" cy="115" rx="15" ry="6" fill="#6B7C6B" opacity="0.8" transform="rotate(40 65 115)"/><ellipse cx="35" cy="130" rx="15" ry="6" fill="#6B7C6B" opacity="0.8" transform="rotate(-40 35 130)"/><ellipse cx="65" cy="145" rx="15" ry="6" fill="#6B7C6B" opacity="0.8" transform="rotate(40 65 145)"/>
</svg>