<svg xmlns="http://www.w3.org/2000/svg" viewBox="0 0 100 250">
  <path d="M 50 230 L 50 70" stroke="#D4A574" stroke-width="2" fill="none"/>
  <ellipse cx="45" cy="65" rx="8" ry="5" fill="#E8D4C0" transform="rotate(-24 45 65)"/><ellipse cx="55" cy="80" rx="8" ry="5" fill="#E8D4C0" transform="rotate(36 55 80)"/><ellipse cx="45" cy="95" rx="8" ry="5" fill="#E8D4C0" transform="rotate(-24 45 95)"/><ellipse cx="55" cy="110" rx="8" ry="5" fill="#E8D4C0" transform="rotate(36 55 110)"/><ellipse cx="45" cy="125" rx="8" ry="5" fill="#E8D4C0" transform="rotate(-24 45 125)"/><ellipse cx="55" cy="140" rx="8" ry="5" fill="#E8D4C0" transform="rotate(36 55 140)"/><ellipse cx="45" cy="155" rx="8" ry="5" fill="#E8D4C0" transform="rotate(-24 45 155)"/><ellipse cx="55" cy="170" rx="8" ry="5" fill="#E8D4C0" transform="rotate(36 55 170)"/>
</svg>