<svg xmlns="http://www.w3.org/2000/svg" viewBox="0 0 100 250">
  <path d="M 50 230 L 50 110" stroke="#D4A574" stroke-width="2" fill="none"/>
  <ellipse cx="45" cy="85" rx="8" ry="5" fill="#E8D4C0" transform="rotate(-16 45 85)"/><ellipse cx="55" cy="100" rx="8" ry="5" fill="#E8D4C0" transform="rotate(44 55 100)"/><ellipse cx="45" cy="115" rx="8" ry="5" fill="#E8D4C0" transform="rotate(-16 45 115)"/><ellipse cx="55" cy="130" rx="8" ry="5" fill="#E8D4C0" transform="rotate(44 55 130)"/><ellipse cx="45" cy="145" rx="8" ry="5" fill="#E8D4C0" transform="rotate(-16 45 145)"/><ellipse cx="55" cy="160" rx="8" ry="5" fill="#E8D4C0" transform="rotate(44 55 160)"/><ellipse cx="45" cy="175" rx="8" ry="5" fill="#E8D4C0" transform="rotate(-16 45 175)"/><ellipse cx="55" cy="190" rx="8" ry="5" fill="#E8D4C0" transform="rotate(44 55 190)"/>
</svg>