<svg xmlns="http://www.w3.org/2000/svg" viewBox="0 0 100 250">
  <path d="M 50 230 L 50 80" stroke="#D4A574" stroke-width="2" fill="none"/>
  <ellipse cx="45" cy="70" rx="8" ry="5" fill="#E8D4C0" transform="rotate(-22 45 70)"/><ellipse cx="55" cy="85" rx="8" ry="5" fill="#E8D4C0" transform="rotate(38 55 85)"/><ellipse cx="45" cy="100" rx="8" ry="5" fill="#E8D4C0" transform="rotate(-22 45 100)"/><ellipse cx="55" cy="115" rx="8" ry="5" fill="#E8D4C0" transform="rotate(38 55 115)"/><ellipse cx="45" cy="130" rx="8" ry="5" fill="#E8D4C0" transform="rotate(-22 45 130)"/><ellipse cx="55" cy="145" rx="8" ry="5" fill="#E8D4C0" transform="rotate(38 55 145)"/><ellipse cx="45" cy="160" rx="8" ry="5" fill="#E8D4C0" transform="rotate(-22 45 160)"/><ellipse cx="55" cy="175" rx="8" ry="5" fill="#E8D4C0" transform="rotate(38 55 175)"/>
</svg>