<svg xmlns="http://www.w3.org/2000/svg" viewBox="0 0 100 250">
  <path d="M 50 230 L 50 120" stroke="#D4A574" stroke-width="2" fill="none"/>
  <ellipse cx="45" cy="90" rx="8" ry="5" fill="#E8D4C0" transform="rotate(-14 45 90)"/><ellipse cx="55" cy="105" rx="8" ry="5" fill="#E8D4C0" transform="rotate(46 55 105)"/><ellipse cx="45" cy="120" rx="8" ry="5" fill="#E8D4C0" transform="rotate(-14 45 120)"/><ellipse cx="55" cy="135" rx="8" ry="5" fill="#E8D4C0" transform="rotate(46 55 135)"/><ellipse cx="45" cy="150" rx="8" ry="5" fill="#E8D4C0" transform="rotate(-14 45 150)"/><ellipse cx="55" cy="165" rx="8" ry="5" fill="#E8D4C0" transform="rotate(46 55 165)"/><ellipse cx="45" cy="180" rx="8" ry="5" fill="#E8D4C0" transform="rotate(-14 45 180)"/><ellipse cx="55" cy="195" rx="8" ry="5" fill="#E8D4C0" transform="rotate(46 55 195)"/>
</svg>