<svg xmlns="http://www.w3.org/2000/svg" viewBox="0 0 100 250">
  <path d="M 50 230 L 50 130" stroke="#D4A574" stroke-width="2" fill="none"/>
  <ellipse cx="45" cy="95" rx="8" ry="5" fill="#E8D4C0" transform="rotate(-12 45 95)"/><ellipse cx="55" cy="110" rx="8" ry="5" fill="#E8D4C0" transform="rotate(48 55 110)"/><ellipse cx="45" cy="125" rx="8" ry="5" fill="#E8D4C0" transform="rotate(-12 45 125)"/><ellipse cx="55" cy="140" rx="8" ry="5" fill="#E8D4C0" transform="rotate(48 55 140)"/><ellipse cx="45" cy="155" rx="8" ry="5" fill="#E8D4C0" transform="rotate(-12 45 155)"/><ellipse cx="55" cy="170" rx="8" ry="5" fill="#E8D4C0" transform="rotate(48 55 170)"/><ellipse cx="45" cy="185" rx="8" ry="5" fill="#E8D4C0" transform="rotate(-12 45 185)"/><ellipse cx="55" cy="200" rx="8" ry="5" fill="#E8D4C0" transform="rotate(48 55 200)"/>
</svg>