<svg xmlns="http://www.w3.org/2000/svg" viewBox="0 0 100 250">
  <path d="M 50 230 L 50 40" stroke="#D4A574" stroke-width="2" fill="none"/>
  <ellipse cx="45" cy="50" rx="8" ry="5" fill="#E8D4C0" transform="rotate(-30 45 50)"/><ellipse cx="55" cy="65" rx="8" ry="5" fill="#E8D4C0" transform="rotate(30 55 65)"/><ellipse cx="45" cy="80" rx="8" ry="5" fill="#E8D4C0" transform="rotate(-30 45 80)"/><ellipse cx="55" cy="95" rx="8" ry="5" fill="#E8D4C0" transform="rotate(30 55 95)"/><ellipse cx="45" cy="110" rx="8" ry="5" fill="#E8D4C0" transform="rotate(-30 45 110)"/><ellipse cx="55" cy="125" rx="8" ry="5" fill="#E8D4C0" transform="rotate(30 55 125)"/><ellipse cx="45" cy="140" rx="8" ry="5" fill="#E8D4C0" transform="rotate(-30 45 140)"/><ellipse cx="55" cy="155" rx="8" ry="5" fill="#E8D4C0" transform="rotate(30 55 155)"/>
</svg>