<svg xmlns="http://www.w3.org/2000/svg" viewBox="0 0 100 250">
  <path d="M 50 230 L 50 60" stroke="#D4A574" stroke-width="2" fill="none"/>
  <ellipse cx="45" cy="60" rx="8" ry="5" fill="#E8D4C0" transform="rotate(-26 45 60)"/><ellipse cx="55" cy="75" rx="8" ry="5" fill="#E8D4C0" transform="rotate(34 55 75)"/><ellipse cx="45" cy="90" rx="8" ry="5" fill="#E8D4C0" transform="rotate(-26 45 90)"/><ellipse cx="55" cy="105" rx="8" ry="5" fill="#E8D4C0" transform="rotate(34 55 105)"/><ellipse cx="45" cy="120" rx="8" ry="5" fill="#E8D4C0" transform="rotate(-26 45 120)"/><ellipse cx="55" cy="135" rx="8" ry="5" fill="#E8D4C0" transform="rotate(34 55 135)"/><ellipse cx="45" cy="150" rx="8" ry="5" fill="#E8D4C0" transform="rotate(-26 45 150)"/><ellipse cx="55" cy="165" rx="8" ry="5" fill="#E8D4C0" transform="rotate(34 55 165)"/>
</svg>