<svg xmlns="http://www.w3.org/2000/svg" viewBox="0 0 300 150">
  <path d="M 10 75 Q 50 60 80 70 Q 110 80 140 65 Q 170 50 200 60 Q 230 70 260 60 Q 280 55 290 50" stroke="#4A7C4A" stroke-width="2" fill="none"/>
  <ellipse cx="50" cy="65" rx="9" ry="11" fill="#4A7C4A" transform="rotate(20 50 65)"/><ellipse cx="80" cy="75" rx="9" ry="11" fill="#4A7C4A" transform="rotate(-20 80 75)"/><ellipse cx="110" cy="65" rx="9" ry="11" fill="#4A7C4A" transform="rotate(20 110 65)"/><ellipse cx="140" cy="75" rx="9" ry="11" fill="#4A7C4A" transform="rotate(-20 140 75)"/><ellipse cx="170" cy="65" rx="9" ry="11" fill="#4A7C4A" transform="rotate(20 170 65)"/><ellipse cx="200" cy="75" rx="9" ry="11" fill="#4A7C4A" transform="rotate(-20 200 75)"/><ellipse cx="230" cy="65" rx="9" ry="11" fill="#4A7C4A" transform="rotate(20 230 65)"/><ellipse cx="260" cy="75" rx="9" ry="11" fill="#4A7C4A" transform="rotate(-20 260 75)"/>
</svg>