<svg xmlns="http://www.w3.org/2000/svg" viewBox="0 0 200 200">
  <!-- Hoja de monstera tropical moderna -->
  <defs>
    <linearGradient id="monsteraGradient" x1="0%" y1="0%" x2="100%" y2="100%">
      <stop offset="0%" style="stop-color:#2D5A3D;stop-opacity:1" />
      <stop offset="100%" style="stop-color:#1E3A2A;stop-opacity:1" />
    </linearGradient>
  </defs>
  
  <!-- Hoja con cortes característicos -->
  <path d="M 100 40 
           Q 120 50 130 70
           Q 135 85 130 100
           Q 125 115 120 130
           Q 115 145 110 160
           L 105 165
           Q 102 150 100 135
           Q 98 120 95 105
           Q 92 90 88 75
           Q 85 60 80 50
           L 75 55
           Q 70 70 68 85
           Q 66 100 65 115
           Q 64 130 62 145
           L 58 160
           Q 55 145 50 130
           Q 45 115 42 100
           Q 38 85 40 70
           Q 45 50 60 40
           Q 80 30 100 40 Z"
        fill="url(#monsteraGradient)" stroke="#1E3A2A" stroke-width="2"/>
  
  <!-- Cortes/agujeros de la monstera -->
  <ellipse cx="75" cy="80" rx="4" ry="12" fill="#FFFFFF" opacity="0.3"/>
  <ellipse cx="92" cy="95" rx="4" ry="12" fill="#FFFFFF" opacity="0.3"/>
  <ellipse cx="80" cy="110" rx="4" ry="12" fill="#FFFFFF" opacity="0.3"/>
  <ellipse cx="95" cy="125" rx="4" ry="12" fill="#FFFFFF" opacity="0.3"/>
  
  <!-- Nervaduras -->
  <path d="M 100 40 L 100 165" stroke="#1A3020" stroke-width="3" fill="none" opacity="0.6"/>
  <path d="M 100 60 Q 85 65 75 80" stroke="#1A3020" stroke-width="1.5" fill="none" opacity="0.5"/>
  <path d="M 100 80 Q 88 88 80 100" stroke="#1A3020" stroke-width="1.5" fill="none" opacity="0.5"/>
  <path d="M 100 100 Q 82 110 70 125" stroke="#1A3020" stroke-width="1.5" fill="none" opacity="0.5"/>
  <path d="M 100 120 Q 80 130 65 145" stroke="#1A3020" stroke-width="1.5" fill="none" opacity="0.5"/>
</svg>
