<svg xmlns="http://www.w3.org/2000/svg" viewBox="0 0 300 120" fill="none">
  <!-- Olive branch - elegant and simple -->
  <g id="olive-branch">
    <!-- Main curved stem -->
    <path d="M20 60 Q80 55 150 60 Q220 65 280 60" stroke="#8B9A7E" stroke-width="2.5" fill="none"/>
    
    <!-- Left side leaves -->
    <ellipse cx="40" cy="48" rx="8" ry="18" fill="#9BAA8E" opacity="0.85" transform="rotate(-25 40 48)"/>
    <ellipse cx="40" cy="72" rx="8" ry="18" fill="#A8B89B" opacity="0.8" transform="rotate(25 40 72)"/>
    
    <ellipse cx="65" cy="44" rx="9" ry="20" fill="#8B9A7E" opacity="0.85" transform="rotate(-30 65 44)"/>
    <ellipse cx="65" cy="76" rx="9" ry="20" fill="#9BAA8E" opacity="0.8" transform="rotate(30 65 76)"/>
    
    <ellipse cx="90" cy="42" rx="8" ry="18" fill="#A8B89B" opacity="0.85" transform="rotate(-28 90 42)"/>
    <ellipse cx="90" cy="78" rx="8" ry="18" fill="#8B9A7E" opacity="0.8" transform="rotate(28 90 78)"/>
    
    <!-- Center leaves -->
    <ellipse cx="120" cy="40" rx="10" ry="22" fill="#9BAA8E" opacity="0.9" transform="rotate(-20 120 40)"/>
    <ellipse cx="120" cy="80" rx="10" ry="22" fill="#A8B89B" opacity="0.85" transform="rotate(20 120 80)"/>
    
    <ellipse cx="150" cy="42" rx="9" ry="20" fill="#8B9A7E" opacity="0.9" transform="rotate(-15 150 42)"/>
    <ellipse cx="150" cy="78" rx="9" ry="20" fill="#9BAA8E" opacity="0.85" transform="rotate(15 150 78)"/>
    
    <ellipse cx="180" cy="44" rx="10" ry="22" fill="#A8B89B" opacity="0.9" transform="rotate(-22 180 44)"/>
    <ellipse cx="180" cy="76" rx="10" ry="22" fill="#8B9A7E" opacity="0.85" transform="rotate(22 180 76)"/>
    
    <!-- Right side leaves -->
    <ellipse cx="210" cy="46" rx="9" ry="20" fill="#9BAA8E" opacity="0.85" transform="rotate(-28 210 46)"/>
    <ellipse cx="210" cy="74" rx="9" ry="20" fill="#A8B89B" opacity="0.8" transform="rotate(28 210 74)"/>
    
    <ellipse cx="235" cy="48" rx="8" ry="18" fill="#8B9A7E" opacity="0.85" transform="rotate(-30 235 48)"/>
    <ellipse cx="235" cy="72" rx="8" ry="18" fill="#9BAA8E" opacity="0.8" transform="rotate(30 235 72)"/>
    
    <ellipse cx="260" cy="50" rx="8" ry="18" fill="#A8B89B" opacity="0.85" transform="rotate(-25 260 50)"/>
    <ellipse cx="260" cy="70" rx="8" ry="18" fill="#8B9A7E" opacity="0.8" transform="rotate(25 260 70)"/>
    
    <!-- Small olives (optional decorative) -->
    <circle cx="55" cy="60" r="3" fill="#6B7A5E" opacity="0.7"/>
    <circle cx="105" cy="60" r="3" fill="#6B7A5E" opacity="0.7"/>
    <circle cx="165" cy="60" r="3" fill="#6B7A5E" opacity="0.7"/>
    <circle cx="225" cy="60" r="3" fill="#6B7A5E" opacity="0.7"/>
  </g>
</svg>
