<svg xmlns="http://www.w3.org/2000/svg" viewBox="0 0 200 200">
  <polygon points="100,40 105,55 120,55 108,65 113,80 100,70 87,80 92,65 80,55 95,55" fill="#FFD700"/>
  <polygon points="60,80 63,88 71,88 65,93 68,101 60,96 52,101 55,93 49,88 57,88" fill="#FFD700" opacity="0.8"/>
  <polygon points="140,75 143,83 151,83 145,88 148,96 140,91 132,96 135,88 129,83 137,83" fill="#FFD700" opacity="0.8"/>
  <polygon points="80,120 82,125 87,125 83,128 85,133 80,130 75,133 77,128 73,125 78,125" fill="#FFD700" opacity="0.7"/>
  <polygon points="120,125 122,130 127,130 123,133 125,138 120,135 115,138 117,133 113,130 118,130" fill="#FFD700" opacity="0.7"/>
</svg>
