<svg xmlns="http://www.w3.org/2000/svg" viewBox="0 0 200 200">
  <g transform="translate(100, 100)">
    <ellipse cx="0" cy="-35" rx="8" ry="20" fill="#FF8C00" transform="rotate(0.0 0 0)"/><ellipse cx="0" cy="-35" rx="8" ry="20" fill="#FF8C00" transform="rotate(22.5 0 0)"/><ellipse cx="0" cy="-35" rx="8" ry="20" fill="#FF8C00" transform="rotate(45.0 0 0)"/><ellipse cx="0" cy="-35" rx="8" ry="20" fill="#FF8C00" transform="rotate(67.5 0 0)"/><ellipse cx="0" cy="-35" rx="8" ry="20" fill="#FF8C00" transform="rotate(90.0 0 0)"/><ellipse cx="0" cy="-35" rx="8" ry="20" fill="#FF8C00" transform="rotate(112.5 0 0)"/><ellipse cx="0" cy="-35" rx="8" ry="20" fill="#FF8C00" transform="rotate(135.0 0 0)"/><ellipse cx="0" cy="-35" rx="8" ry="20" fill="#FF8C00" transform="rotate(157.5 0 0)"/><ellipse cx="0" cy="-35" rx="8" ry="20" fill="#FF8C00" transform="rotate(180.0 0 0)"/><ellipse cx="0" cy="-35" rx="8" ry="20" fill="#FF8C00" transform="rotate(202.5 0 0)"/><ellipse cx="0" cy="-35" rx="8" ry="20" fill="#FF8C00" transform="rotate(225.0 0 0)"/><ellipse cx="0" cy="-35" rx="8" ry="20" fill="#FF8C00" transform="rotate(247.5 0 0)"/><ellipse cx="0" cy="-35" rx="8" ry="20" fill="#FF8C00" transform="rotate(270.0 0 0)"/><ellipse cx="0" cy="-35" rx="8" ry="20" fill="#FF8C00" transform="rotate(292.5 0 0)"/><ellipse cx="0" cy="-35" rx="8" ry="20" fill="#FF8C00" transform="rotate(315.0 0 0)"/><ellipse cx="0" cy="-35" rx="8" ry="20" fill="#FF8C00" transform="rotate(337.5 0 0)"/>
    <circle cx="0" cy="0" r="10" fill="#8B6914"/>
  </g>
</svg>