<svg xmlns="http://www.w3.org/2000/svg" viewBox="0 0 100 150">
  <defs>
    <linearGradient id="tulipGrad" x1="0%" y1="0%" x2="0%" y2="100%">
      <stop offset="0%" style="stop-color:#FF6B9D;stop-opacity:1" />
      <stop offset="100%" style="stop-color:#C44569;stop-opacity:1" />
    </linearGradient>
  </defs>
  <path d="M 50 30 Q 35 50 35 70 L 35 85 Q 35 90 40 90 L 60 90 Q 65 90 65 85 L 65 70 Q 65 50 50 30 Z" fill="url(#tulipGrad)"/>
  <path d="M 30 50 Q 25 60 25 75 Q 25 85 30 85 L 35 85 L 35 70 Q 35 55 40 45 Z" fill="#FF6B9D" opacity="0.9"/>
  <path d="M 70 50 Q 75 60 75 75 Q 75 85 70 85 L 65 85 L 65 70 Q 65 55 60 45 Z" fill="#FF6B9D" opacity="0.9"/>
  <rect x="47" y="90" width="6" height="50" fill="#5A8C5A"/>
  <ellipse cx="40" cy="110" rx="8" ry="4" fill="#6FA86F" transform="rotate(-30 40 110)"/>
</svg>
