<svg xmlns="http://www.w3.org/2000/svg" viewBox="0 0 200 200">
  <g transform="translate(70, 80)">
    <path d="M -15 0 Q -20 -10 -15 -20 L 15 -20 Q 20 -10 15 0 Z" fill="#FFD700" stroke="#C9A959" stroke-width="2"/>
    <circle cx="0" cy="5" r="4" fill="#C9A959"/>
    <line x1="0" y1="-20" x2="0" y2="-30" stroke="#C9A959" stroke-width="2"/>
    <circle cx="0" cy="-30" r="3" fill="#C9A959"/>
  </g>
  <g transform="translate(130, 80)">
    <path d="M -15 0 Q -20 -10 -15 -20 L 15 -20 Q 20 -10 15 0 Z" fill="#FFD700" stroke="#C9A959" stroke-width="2"/>
    <circle cx="0" cy="5" r="4" fill="#C9A959"/>
    <line x1="0" y1="-20" x2="0" y2="-30" stroke="#C9A959" stroke-width="2"/>
    <circle cx="0" cy="-30" r="3" fill="#C9A959"/>
  </g>
  <path d="M 70 50 Q 90 40 100 50 Q 110 40 130 50" stroke="#C9A959" stroke-width="2" fill="none"/>
  <path d="M 95 55 Q 100 50 105 55" stroke="#FF6B9D" stroke-width="2" fill="none"/>
</svg>
