<svg xmlns="http://www.w3.org/2000/svg" version="1.1" viewBox="-20.5 -20 1064.5 1064">
<g stroke-width="2.00" fill="none" stroke-linecap="butt" data-svg-id="svg-elem-1767364856611-094yw8vj7" id="svg-elem-1767364398448-s1ygb72ey">
<path stroke="#faf6ef" vector-effect="non-scaling-stroke" d="   M 0.00 802.00   Q 1.74 808.29 3.46 814.58   Q 4.95 820.04 6.30 827.29   Q 10.05 847.42 14.69 861.34   C 17.68 870.31 21.93 883.23 27.55 894.03" data-svg-id="svg-elem-1767364856611-u0ycsjmxy" id="svg-elem-1767364398448-hyetebtff"/>
<path stroke="#f6f5f0" vector-effect="non-scaling-stroke" d="   M 27.55 894.03   Q 34.92 909.05 45.18 922.33   C 49.16 927.48 53.65 933.96 57.72 938.81   Q 72.27 956.10 90.12 970.88   Q 100.35 979.35 106.84 983.16   Q 149.64 1008.24 198.29 1017.67   Q 208.47 1019.64 215.54 1019.81   Q 241.75 1020.46 266.63 1021.89   Q 273.09 1022.27 278.10 1022.14   C 287.97 1021.90 296.72 1022.34 306.80 1022.34   Q 356.62 1022.29 406.44 1023.06" data-svg-id="svg-elem-1767364856611-p5esy1a1t" id="svg-elem-1767364398448-audmmatl3"/>
<path stroke="#f4f3eb" vector-effect="non-scaling-stroke" d="   M 406.44 1023.06   Q 462.34 1023.48 518.25 1023.24   Q 533.90 1023.17 549.75 1023.14   Q 619.51 1023.03 637.72 1022.99   Q 647.44 1022.97 654.23 1023.01   Q 684.65 1023.18 714.75 1022.81   Q 725.49 1022.68 737.88 1022.76   C 749.80 1022.85 760.61 1022.24 772.01 1021.51" data-svg-id="svg-elem-1767364856611-dvfhu3uv5" id="svg-elem-1767364398448-otrzrfcl9"/>
<path stroke="#f0f2eb" vector-effect="non-scaling-stroke" d="   M 772.01 1021.51   Q 781.31 1020.67 790.70 1020.39   Q 801.86 1020.06 807.22 1019.31   Q 824.38 1016.90 846.99 1013.33   Q 852.13 1012.52 857.99 1010.65   C 864.52 1008.57 871.13 1007.50 877.01 1004.66   Q 881.59 1002.45 885.06 1001.45   C 892.35 999.33 897.99 996.08 904.93 992.86   Q 907.97 991.46 913.29 988.29   Q 916.57 986.35 922.09 983.33   Q 927.58 980.33 937.09 972.58   Q 945.96 965.34 958.14 953.15   Q 963.77 947.51 974.80 933.37   Q 982.31 923.74 988.95 911.72   Q 998.25 894.90 1002.25 884.75   Q 1008.74 868.27 1013.28 851.02   C 1017.03 836.80 1018.37 822.49 1018.93 807.97" data-svg-id="svg-elem-1767364856611-jygx2x26p" id="svg-elem-1767364398449-vp1z4uw9m"/>
<path stroke="#f4f3eb" vector-effect="non-scaling-stroke" d="   M 1018.93 807.97   Q 1019.94 800.12 1020.25 792.23   Q 1020.93 775.39 1021.67 758.54" data-svg-id="svg-elem-1767364856611-mlhx6b97y" id="svg-elem-1767364398449-s61ul5pev"/>
<path stroke="#faf6ef" vector-effect="non-scaling-stroke" d="   M 1021.67 758.54   C 1022.39 744.43 1021.54 727.19 1021.73 716.38   C 1021.95 702.89 1021.21 692.62 1021.54 680.47   Q 1021.63 676.93 1021.42 660.98   C 1021.14 640.07 1021.75 609.54 1021.39 588.63   C 1020.91 560.24 1021.90 533.85 1021.77 504.09   Q 1021.61 465.79 1021.55 450.77   C 1021.52 441.89 1020.93 430.90 1021.05 423.32   Q 1021.63 383.71 1020.44 343.99   C 1020.00 329.21 1020.42 322.85 1020.87 306.08   Q 1021.28 290.49 1019.55 275.96   C 1018.75 269.31 1018.99 263.58 1018.48 256.36   Q 1017.44 241.81 1015.98 223.59   C 1014.96 210.80 1012.56 198.22 1009.16 187.30   Q 1007.65 182.44 1004.85 173.84   C 1000.83 161.45 996.93 153.26 990.04 138.78   C 985.81 129.88 980.93 123.09 975.22 115.78   Q 965.19 102.97 956.78 93.17   C 949.69 84.91 937.17 73.64 925.98 65.12   C 919.01 59.82 909.22 51.78 899.34 46.11   Q 890.25 40.90 885.13 37.78   Q 863.59 24.69 838.75 18.33   Q 834.59 17.27 831.71 16.83   C 825.25 15.83 819.67 14.28 814.01 13.94   Q 806.14 13.46 796.27 13.39   A 0.18 0.18 0.0 0 0 796.18 13.73   Q 800.81 16.35 804.55 17.06   C 812.20 18.51 819.05 19.41 826.85 21.70   Q 843.47 26.56 849.41 28.59   Q 864.73 33.84 870.19 36.85   Q 875.83 39.95 892.16 49.83   C 909.76 60.48 925.86 73.76 937.21 90.81   C 941.19 96.80 946.60 106.87 938.47 111.88   C 933.39 115.01 929.76 116.84 926.22 120.28   Q 922.46 123.93 918.14 126.85   C 908.24 133.54 906.01 141.12 902.56 152.13   C 900.12 159.93 896.34 164.53 891.49 171.93   C 886.61 179.38 885.85 188.48 883.90 199.75   C 881.91 211.23 874.29 203.30 870.42 208.47   Q 868.97 210.41 868.17 212.22   C 862.97 224.13 857.41 236.15 847.30 243.94   C 839.73 249.78 835.47 244.01 831.95 237.75" data-svg-id="svg-elem-1767364856611-n739dsl8b" id="svg-elem-1767364398449-153vbauvp"/>
<path stroke="#d2e7d5" vector-effect="non-scaling-stroke" d="   M 831.95 237.75   C 830.89 232.63 830.22 226.91 828.19 222.06   A 1.83 1.75 4.8 0 0 827.42 221.19   Q 825.89 220.30 823.99 220.31   Q 798.63 220.35 797.88 220.36   C 786.24 220.61 779.27 221.51 765.87 223.28   Q 757.08 224.44 747.69 226.66   Q 727.23 231.49 722.23 232.99   Q 690.27 242.57 665.89 256.22   Q 648.14 266.16 641.49 271.48   Q 626.69 283.32 623.81 286.06   Q 599.14 309.55 588.45 322.67   Q 581.60 331.08 572.32 345.44   C 569.00 350.59 565.41 358.02 561.85 364.20" data-svg-id="svg-elem-1767364856611-anf7bl0ac" id="svg-elem-1767364398449-2gxqd5uoj"/>
<path stroke="#f0f2eb" vector-effect="non-scaling-stroke" d="   M 561.85 364.20   L 562.53 362.07" data-svg-id="svg-elem-1767364856611-4jhjjac1i" id="svg-elem-1767364398449-ymesp9e78"/>
<path stroke="#f4f3eb" vector-effect="non-scaling-stroke" d="   M 562.53 362.07   Q 562.63 361.83 562.74 361.61   Q 562.74 361.60 562.74 361.61   Q 562.63 361.83 562.53 362.07" data-svg-id="svg-elem-1767364856611-bvbohcnbf" id="svg-elem-1767364398449-f0ih6zhd9"/>
<path stroke="#f0f2eb" vector-effect="non-scaling-stroke" d="   M 562.53 362.07   Q 559.33 368.80 555.63 375.28   Q 554.00 378.12 553.14 380.62   C 550.74 387.60 547.66 394.14 545.82 401.31" data-svg-id="svg-elem-1767364856611-t5p2bf607" id="svg-elem-1767364398449-xnvkbp7rw"/>
<path stroke="#d2e7d5" vector-effect="non-scaling-stroke" d="   M 545.82 401.31   Q 538.76 419.70 534.11 439.26" data-svg-id="svg-elem-1767364856611-gkaqm2aal" id="svg-elem-1767364398449-t3533f7z0"/>
<path stroke="#c7e5d5" vector-effect="non-scaling-stroke" d="   M 534.11 439.26   Q 528.80 460.77 526.12 480.62   Q 523.14 502.68 520.38 531.43" data-svg-id="svg-elem-1767364856611-p7q3gdm1x" id="svg-elem-1767364398449-bdopxt7qk"/>
<path stroke="#faf6ef" vector-effect="non-scaling-stroke" d="   M 520.38 531.43   Q 513.25 535.93 506.13 537.18   Q 493.79 539.33 485.22 542.01" data-svg-id="svg-elem-1767364856611-5pm5c865v" id="svg-elem-1767364398449-k6mx5qhbf"/>
<path stroke="#c0d8e9" vector-effect="non-scaling-stroke" d="   M 485.22 542.01   L 492.73 476.98" data-svg-id="svg-elem-1767364856611-1imjyndui" id="svg-elem-1767364398449-23z6tkcsx"/>
<path stroke="#ccdcea" vector-effect="non-scaling-stroke" d="   M 492.73 476.98   Q 495.03 456.50 496.03 435.92   C 496.19 432.57 496.90 428.57 497.39 425.31   C 498.02 421.10 495.90 417.95 493.25 414.83   C 489.99 410.99 488.49 409.13 484.47 403.71   Q 481.85 400.18 478.62 396.71   Q 464.36 381.34 457.44 375.20   Q 448.76 367.48 433.31 355.79   C 428.10 351.86 421.35 348.01 415.96 344.27   Q 409.79 339.98 402.69 336.43   C 394.52 332.34 389.53 328.80 381.86 326.29   Q 375.91 324.35 369.21 321.39   C 362.88 318.60 356.18 317.38 350.67 315.33   Q 345.00 313.21 336.62 311.32   Q 324.04 308.48 321.97 308.12   Q 276.70 300.17 231.38 304.30   C 222.71 305.08 212.24 306.94 203.01 307.98   Q 197.24 308.63 188.78 309.93   A 2.11 2.11 0.0 0 0 187.06 311.48   Q 186.29 314.43 185.99 317.99   C 184.30 338.28 186.15 356.98 189.19 378.56   Q 192.90 404.92 200.07 429.45   Q 201.42 434.05 207.57 453.38   Q 208.00 454.74 209.13 457.50   C 210.48 460.78 211.06 463.92 213.31 467.27   Q 213.83 468.04 214.48 471.39   A 2.63 2.50 -65.4 0 0 214.72 472.09   L 224.29 490.23" data-svg-id="svg-elem-1767364856611-j51yqrtz8" id="svg-elem-1767364398449-99w6tal01"/>
<path stroke="#faf6ef" vector-effect="non-scaling-stroke" d="   M 224.29 490.23   L 227.17 497.38   A 1.13 1.13 0.0 0 1 227.15 498.31   C 223.63 505.97 222.91 511.65 221.65 520.62   C 220.93 525.70 218.46 535.05 212.14 535.88   C 208.60 536.35 205.86 534.21 202.81 533.88   A 5.56 5.45 -45.6 0 0 201.37 533.91   Q 193.50 535.06 193.49 535.06   Q 182.78 535.47 172.24 536.74   C 165.48 537.56 161.07 536.07 154.71 533.76   C 145.39 530.39 143.88 542.28 134.93 541.16   C 130.07 540.55 124.08 538.37 119.00 537.96   Q 111.60 537.37 104.27 539.26   Q 82.46 544.89 69.29 548.99   C 63.39 550.82 57.17 554.03 53.49 559.01   C 46.31 568.75 47.18 581.81 35.57 587.72   C 22.96 594.15 18.41 577.33 16.91 569.01   Q 14.77 557.21 14.13 542.70   Q 13.18 521.35 12.64 499.95" data-svg-id="svg-elem-1767364856611-lwvaby4i7" id="svg-elem-1767364398449-njrvljep5"/>
<path stroke="#fdf4e7" vector-effect="non-scaling-stroke" d="   M 12.64 499.95   Q 15.36 455.16 14.89 412.85   C 14.74 399.18 13.99 381.10 14.23 365.26   Q 14.82 326.48 14.50 318.33   Q 13.80 300.84 13.32 275.03   C 12.90 252.57 14.23 231.11 19.72 209.88   Q 24.41 191.73 26.12 185.33   C 27.28 180.99 30.04 175.03 31.90 169.85   Q 38.37 151.83 45.93 137.89   Q 50.12 130.18 58.42 118.10   C 63.47 110.75 70.21 105.14 75.26 97.92   C 81.89 88.44 90.69 79.24 98.51 70.76   Q 111.72 56.42 128.21 47.50   C 143.70 39.13 153.89 33.35 168.48 28.81   C 177.06 26.14 183.98 22.97 193.08 20.05   Q 201.53 17.35 203.34 16.05   A 0.52 0.52 0.0 0 0 203.11 15.12   C 199.49 14.61 194.69 15.44 188.17 16.20   C 179.00 17.26 172.78 20.14 162.09 24.04   Q 151.67 27.85 146.92 30.30   Q 136.93 35.47 133.15 37.14   C 122.55 41.82 113.74 48.42 103.54 55.24   C 95.96 60.31 89.17 66.67 81.81 73.06   Q 73.13 80.59 62.83 92.08   Q 52.06 104.10 47.08 112.31   C 40.79 122.71 34.70 132.10 30.16 141.80   C 23.86 155.25 19.29 164.83 15.57 176.83   C 9.07 197.82 5.29 218.15 1.92 241.91   Q 0.70 250.58 0.00 267.38" data-svg-id="svg-elem-1767364856611-8s2e8luyh" id="svg-elem-1767364398449-jvf214obk"/>
<path stroke="#f1f2eb" vector-effect="non-scaling-stroke" d="   M 1021.67 758.54   Q 1020.14 607.07 1020.59 567.58   C 1021.24 511.67 1020.35 464.40 1018.99 413.84   C 1018.32 389.13 1019.00 362.86 1016.26 337.29   A 0.29 0.29 0.0 0 0 1015.70 337.24   Q 1015.25 338.67 1015.11 341.02   C 1013.27 370.90 1013.05 396.36 1013.01 431.27   C 1012.98 461.89 1012.23 498.79 1011.68 520.42   Q 1011.44 530.13 1010.60 537.98   C 1010.22 541.61 1009.30 546.84 1006.43 549.56   C 1004.33 551.56 999.37 552.14 997.08 553.30   C 990.57 556.58 985.98 563.91 982.96 570.51   C 981.46 573.81 980.90 578.86 979.71 581.92   Q 977.64 587.27 973.40 590.49   C 965.77 596.27 955.21 599.98 945.81 600.70   C 939.71 601.17 936.64 598.48 935.85 592.51   C 935.54 590.20 935.33 586.14 933.91 584.46   A 1.10 1.10 0.0 0 0 932.29 584.40   Q 931.31 585.38 930.98 586.65   C 928.72 595.11 927.29 603.58 919.25 608.59   C 915.05 611.20 907.99 612.40 902.46 614.21   Q 896.73 616.08 889.06 623.13   Q 885.85 626.09 884.14 626.64   Q 876.61 629.09 869.60 633.99   C 864.44 637.59 860.96 641.66 854.23 641.99   Q 846.37 642.38 838.98 639.07   C 828.77 634.50 824.38 632.20 815.16 631.28   Q 809.88 630.75 789.12 627.55   C 781.30 626.34 773.58 625.89 766.78 627.80   Q 759.26 629.92 752.15 630.99   Q 748.50 631.53 745.10 630.51   C 740.49 629.11 742.84 625.52 744.76 622.70   Q 748.21 617.63 750.38 615.59   Q 755.44 610.82 757.14 609.02   Q 759.78 606.23 757.05 603.94   Q 753.50 600.94 746.44 598.34" data-svg-id="svg-elem-1767364856611-4pt7pz75k" id="svg-elem-1767364398449-5udcphkjg"/>
<path stroke="#b7dddc" vector-effect="non-scaling-stroke" d="   M 746.44 598.34   L 764.03 569.52" data-svg-id="svg-elem-1767364856611-wvc2i9d7f" id="svg-elem-1767364398449-yd3wdnigq"/>
<path stroke="#c3e3d5" vector-effect="non-scaling-stroke" d="   M 764.03 569.52   Q 770.73 557.87 777.23 546.26   Q 779.59 542.04 780.94 539.13   C 784.84 530.73 788.73 523.13 793.80 510.80   C 795.83 505.87 800.09 498.77 802.34 492.54   Q 806.43 481.16 809.97 472.45   C 812.99 465.00 814.18 458.53 817.05 450.51   C 820.03 442.19 821.84 433.13 823.88 425.43   Q 831.49 396.66 834.48 377.85   Q 841.20 335.61 838.53 289.54   Q 838.41 287.46 838.22 285.49" data-svg-id="svg-elem-1767364856611-4wntexghr" id="svg-elem-1767364398449-67kne58nx"/>
<path stroke="#cee6d5" vector-effect="non-scaling-stroke" d="   M 838.22 285.49   Q 836.22 261.44 831.95 237.75" data-svg-id="svg-elem-1767364856611-uwp4vinm8" id="svg-elem-1767364398449-i71xs3dll"/>
<path stroke="#f9f2e7" vector-effect="non-scaling-stroke" d="   M 12.64 499.95   Q 11.33 558.44 9.23 616.88   Q 9.08 621.31 8.05 624.75   A 1.05 1.05 0.0 0 1 6.30 625.19   L 4.52 623.41   A 1.61 1.61 0.0 0 0 1.89 623.94   L 0.00 628.62" data-svg-id="svg-elem-1767364856611-phd1ldvi9" id="svg-elem-1767364398449-mj0daca8s"/>
<path stroke="#9bd5bb" vector-effect="non-scaling-stroke" d="   M 838.22 285.49   C 826.71 284.45 819.53 288.16 812.19 297.36   C 806.14 304.94 798.51 315.88 794.40 322.14   C 783.60 338.58 779.78 348.54 769.25 372.23   C 760.74 391.38 749.39 406.04 730.72 415.70   Q 718.99 421.76 711.64 425.67   Q 699.02 432.38 690.36 444.21" data-svg-id="svg-elem-1767364856611-qsooo61ny" id="svg-elem-1767364398449-71o3lzr0o"/>
<path stroke="#cee6d5" vector-effect="non-scaling-stroke" d="   M 690.36 444.21   Q 687.78 437.77 685.55 431.46   Q 683.60 425.95 677.53 417.19   C 667.60 402.88 649.50 392.16 631.86 398.10   Q 621.88 401.46 615.43 406.96   C 600.82 419.40 590.68 438.96 584.03 455.29" data-svg-id="svg-elem-1767364856611-wxj3hzqwx" id="svg-elem-1767364398449-y6iordtsn"/>
<path stroke="#9bd5bb" vector-effect="non-scaling-stroke" d="   M 584.03 455.29   C 568.31 445.36 552.43 441.58 534.11 439.26" data-svg-id="svg-elem-1767364856611-h0pgnawhy" id="svg-elem-1767364398449-vnb06hxqy"/>
<path stroke="#c5e2d1" vector-effect="non-scaling-stroke" d="   M 545.82 401.31   L 555.24 377.98   A 0.04 0.04 0.0 0 1 555.29 377.95   L 555.53 378.05   A 0.25 0.25 0.0 0 1 555.66 378.38   C 554.84 380.25 553.76 382.56 553.87 382.75   A 0.09 0.09 0.0 0 0 554.03 382.75   L 561.85 364.20" data-svg-id="svg-elem-1767364856611-he5efy1v7" id="svg-elem-1767364398449-hqjeusq87"/>
<path stroke="#84ccc2" vector-effect="non-scaling-stroke" d="   M 764.03 569.52   Q 741.58 568.82 724.32 567.29   Q 706.88 565.74 691.47 572.28" data-svg-id="svg-elem-1767364856611-rvu0hhx36" id="svg-elem-1767364398449-w31w2hnm4"/>
<path stroke="#c3e3d5" vector-effect="non-scaling-stroke" d="   M 691.47 572.28   Q 696.82 551.33 699.10 529.88   C 700.31 518.44 699.94 505.36 699.76 495.30   C 699.56 484.20 696.89 472.76 695.15 461.65   Q 694.12 455.13 690.36 444.21" data-svg-id="svg-elem-1767364856611-syzh92qbw" id="svg-elem-1767364398449-dvhxbomxf"/>
<path stroke="#8fbce4" vector-effect="non-scaling-stroke" d="   M 492.73 476.98   Q 478.02 480.94 471.13 484.13   Q 466.23 486.40 454.29 492.02   C 445.17 496.33 432.22 498.07 420.69 498.59   Q 389.98 499.98 370.01 500.97   Q 351.11 501.91 334.70 500.61   Q 328.59 500.13 307.35 497.46   Q 295.19 495.93 278.50 495.44   Q 262.78 494.97 227.05 495.01" data-svg-id="svg-elem-1767364856611-7c9lbzmwl" id="svg-elem-1767364398449-1v3secvxf"/>
<path stroke="#c9daea" vector-effect="non-scaling-stroke" d="   M 227.05 495.01   L 224.29 490.23" data-svg-id="svg-elem-1767364856611-s4r0el1p4" id="svg-elem-1767364398449-t3zxewqos"/>
<path stroke="#e7eee7" vector-effect="non-scaling-stroke" d="   M 1018.93 807.97   Q 1019.23 792.51 1018.16 777.12   C 1017.98 774.65 1017.60 769.33 1016.04 767.54   A 1.21 1.21 0.0 0 0 1014.06 767.78   Q 1011.76 772.24 1010.50 778.79   Q 1007.54 794.27 1005.81 800.49   C 1002.98 810.66 997.41 816.66 986.58 817.45   Q 978.59 818.04 967.79 818.65   Q 965.02 818.81 962.16 819.34   Q 950.16 821.58 927.14 824.33   C 917.17 825.52 910.10 827.17 901.41 831.93   Q 894.24 835.87 885.47 836.70   Q 877.56 837.46 867.30 838.14   Q 864.02 838.36 860.70 839.23   C 853.43 841.14 849.17 842.65 841.96 844.04   Q 830.63 846.23 825.69 848.01   C 818.74 850.53 814.16 852.94 802.82 858.60   Q 799.32 860.35 795.26 860.58   C 792.27 860.76 789.44 859.22 786.75 858.06   C 779.32 854.86 773.97 861.25 772.12 867.58   C 769.05 878.11 770.31 889.45 775.46 899.28   C 778.06 904.25 781.35 910.13 779.83 915.19   C 776.41 926.64 765.36 931.58 757.19 937.31   C 740.45 949.07 748.99 974.05 752.98 988.96   Q 753.85 992.19 754.56 1000.79   Q 755.17 1008.15 756.33 1010.49   C 759.11 1016.04 767.33 1019.60 772.01 1021.51" data-svg-id="svg-elem-1767364856611-8z880wnsb" id="svg-elem-1767364398449-jcf2mtybl"/>
<path stroke="#edf1ec" vector-effect="non-scaling-stroke" d="   M 406.44 1023.06   L 359.69 1021.86   A 1.12 1.12 0.0 0 1 359.10 1019.80   Q 360.68 1018.74 362.69 1018.23   Q 367.12 1017.11 383.35 1014.11   C 394.64 1012.02 402.35 1008.91 404.89 996.89   Q 407.10 986.49 408.44 980.57   C 409.68 975.12 411.83 971.14 416.46 967.77   C 419.86 965.30 422.30 963.10 424.14 960.02   C 427.05 955.14 429.81 948.80 432.69 944.31   C 436.70 938.04 441.80 931.71 440.62 924.20   C 440.11 920.95 437.43 916.13 437.65 912.59   Q 437.99 906.96 443.00 902.46   C 447.89 898.05 454.65 893.65 459.40 889.20   C 463.38 885.46 470.38 879.32 476.49 874.53   C 480.07 871.72 484.27 868.86 485.26 866.46   A 1.10 1.09 23.0 0 0 484.68 865.04   Q 483.55 864.54 482.50 864.38   C 474.78 863.20 464.58 861.17 462.47 853.31   C 460.90 847.48 462.87 836.48 465.51 830.93   C 470.92 819.58 481.58 813.06 492.22 806.60   Q 499.43 802.22 511.93 791.07" data-svg-id="svg-elem-1767364856611-nyajplpdu" id="svg-elem-1767364398449-iwqztlgy3"/>
<path stroke="#9bc8e0" vector-effect="non-scaling-stroke" d="   M 511.93 791.07   C 525.54 785.49 539.20 779.98 552.44 773.76   Q 567.51 766.67 572.54 764.04   Q 597.53 750.96 619.36 733.26" data-svg-id="svg-elem-1767364856611-gmiqnhifk" id="svg-elem-1767364398449-3wvvco06f"/>
<path stroke="#a4d3dd" vector-effect="non-scaling-stroke" d="   M 619.36 733.26   Q 643.62 715.41 653.53 706.29   Q 661.47 698.98 669.33 692.32   C 673.52 688.77 677.14 684.51 680.07 681.08   Q 681.73 679.13 687.98 672.47   Q 697.93 661.86 706.92 650.55" data-svg-id="svg-elem-1767364856611-4gjc7qdto" id="svg-elem-1767364398449-ieqtz7nsl"/>
<path stroke="#b2dbd8" vector-effect="non-scaling-stroke" d="   M 706.92 650.55   Q 712.43 644.80 717.18 638.67   C 727.36 625.51 736.66 611.78 746.44 598.34" data-svg-id="svg-elem-1767364856611-5u9j77am3" id="svg-elem-1767364398449-alqecrqtd"/>
<path stroke="#b7dddc" vector-effect="non-scaling-stroke" d="   M 691.47 572.28   Q 683.04 599.47 667.88 623.43" data-svg-id="svg-elem-1767364856611-fomflg4qn" id="svg-elem-1767364398449-ivg2101cc"/>
<path stroke="#a9d5e1" vector-effect="non-scaling-stroke" d="   M 667.88 623.43   Q 658.93 637.23 649.14 648.39   Q 630.18 670.01 607.80 689.29   Q 596.89 698.69 579.16 710.16   C 573.45 713.86 566.72 717.50 560.50 721.25" data-svg-id="svg-elem-1767364856611-juy5mb4e7" id="svg-elem-1767364398449-nswpn94rg"/>
<path stroke="#a1cae4" vector-effect="non-scaling-stroke" d="   M 560.50 721.25   Q 539.15 732.50 517.13 742.42   Q 512.35 744.58 507.27 745.88   A 0.78 0.78 0.0 0 1 506.38 744.78   Q 506.95 743.64 508.14 742.58" data-svg-id="svg-elem-1767364856611-qo9a3z16y" id="svg-elem-1767364398449-7srvfn2bp"/>
<path stroke="#a9d5e1" vector-effect="non-scaling-stroke" d="   M 508.14 742.58   Q 513.90 736.82 518.32 729.83   Q 530.70 710.26 540.27 689.32" data-svg-id="svg-elem-1767364856611-mztgylche" id="svg-elem-1767364398449-2wg8scpjb"/>
<path stroke="#b7dddc" vector-effect="non-scaling-stroke" d="   M 540.27 689.32   Q 547.22 674.01 549.30 666.50   Q 552.83 653.74 557.96 623.50   Q 559.37 615.15 561.42 599.48   Q 562.58 590.67 563.76 575.34   Q 564.83 561.54 566.42 547.84" data-svg-id="svg-elem-1767364856611-gqi4s1gh5" id="svg-elem-1767364398449-oaslmgbqg"/>
<path stroke="#c3e3d5" vector-effect="non-scaling-stroke" d="   M 566.42 547.84   Q 567.85 534.51 569.38 521.27   C 570.58 510.84 572.37 500.69 574.16 490.43   Q 575.86 480.64 584.03 455.29" data-svg-id="svg-elem-1767364856611-ua6rk7xtj" id="svg-elem-1767364398449-mxp6kik3y"/>
<path stroke="#84ccc2" vector-effect="non-scaling-stroke" d="   M 566.42 547.84   L 519.10 547.24" data-svg-id="svg-elem-1767364856611-xev5owtb5" id="svg-elem-1767364398449-56hv37r42"/>
<path stroke="#c3e3d5" vector-effect="non-scaling-stroke" d="   M 519.10 547.24   L 520.38 531.43" data-svg-id="svg-elem-1767364856611-hy95dobso" id="svg-elem-1767364398449-mz0w3r5wb"/>
<path stroke="#bcd6e9" vector-effect="non-scaling-stroke" d="   M 485.22 542.01   L 481.26 575.97" data-svg-id="svg-elem-1767364856611-p9w2ftf7q" id="svg-elem-1767364398449-mcls4ti47"/>
<path stroke="#6fb7db" vector-effect="non-scaling-stroke" d="   M 481.26 575.97   Q 465.24 576.84 455.42 578.44   Q 431.98 582.24 409.33 585.08   C 404.20 585.72 398.26 586.80 393.86 587.64   C 380.25 590.26 366.26 587.86 353.16 582.74   Q 336.70 576.30 313.47 566.80   Q 294.51 559.03 274.01 559.07" data-svg-id="svg-elem-1767364856611-iza716qch" id="svg-elem-1767364398449-eq6jnc5lg"/>
<path stroke="#bcd6e9" vector-effect="non-scaling-stroke" d="   M 274.01 559.07   Q 266.70 551.08 259.58 543.06   C 255.02 537.93 251.51 532.92 247.42 527.86   Q 243.50 523.01 239.05 515.86   Q 232.74 505.72 227.05 495.01" data-svg-id="svg-elem-1767364856611-2ak2azqb4" id="svg-elem-1767364398449-ghfty7s1i"/>
<path stroke="#a9d5e1" vector-effect="non-scaling-stroke" d="   M 274.01 559.07   Q 276.17 561.65 282.41 567.84   Q 309.80 595.03 340.66 612.82   C 346.93 616.44 352.31 618.52 359.11 622.05   Q 363.90 624.54 373.17 628.46   Q 387.54 634.52 400.50 638.95   Q 406.19 640.89 409.28 641.54   C 416.28 643.02 421.47 645.64 428.60 646.83   Q 436.54 648.15 445.88 649.78   C 451.25 650.72 456.10 650.39 461.50 651.70   Q 464.45 652.42 467.08 652.71   A 1.83 1.82 -82.2 0 0 469.08 651.19   L 481.26 575.97" data-svg-id="svg-elem-1767364856611-m50u1gpin" id="svg-elem-1767364398449-rnx3xm87n"/>
<path stroke="#b7dddc" vector-effect="non-scaling-stroke" d="   M 519.10 547.24   Q 515.87 586.62 511.04 625.74   C 510.33 631.48 509.44 637.48 508.05 643.05   Q 504.96 655.40 503.92 661.59   A 0.08 0.05 -73.8 0 1 503.84 661.67   Q 503.76 661.59 503.73 661.53   A 0.16 0.09 -62.5 0 0 503.53 661.66   Q 501.20 670.58 498.27 679.65" data-svg-id="svg-elem-1767364856611-u3ljzxswf" id="svg-elem-1767364398449-0edwyw9k4"/>
<path stroke="#a9d5e1" vector-effect="non-scaling-stroke" d="   M 498.27 679.65   C 494.05 689.95 490.07 700.97 484.45 710.46   Q 478.34 720.78 469.13 733.54" data-svg-id="svg-elem-1767364856611-y0zhcb9qa" id="svg-elem-1767364398449-btwe9ihv9"/>
<path stroke="#a1cae4" vector-effect="non-scaling-stroke" d="   M 469.13 733.54   Q 460.02 745.52 444.29 759.79   Q 426.96 775.51 409.82 784.25" data-svg-id="svg-elem-1767364856611-su9sust34" id="svg-elem-1767364398449-hwknmh550"/>
<path stroke="#f3f4f0" vector-effect="non-scaling-stroke" d="   M 409.82 784.25   Q 402.42 783.12 397.19 777.88   C 387.42 768.08 377.45 755.55 363.51 751.50   C 357.24 749.67 346.51 750.61 340.64 749.52   C 328.62 747.28 320.92 742.89 310.14 737.43   C 304.48 734.56 297.27 731.87 291.55 729.30   C 287.53 727.49 284.06 725.13 281.16 723.05   Q 277.92 720.72 275.76 721.97   C 271.35 724.54 268.89 729.96 269.45 735.48   C 269.81 738.97 271.25 744.88 266.15 745.83   C 260.36 746.92 257.33 742.87 256.93 737.20   C 256.49 731.10 256.62 726.75 255.17 721.05   C 253.40 714.12 248.45 712.63 241.77 712.76   C 227.85 713.04 215.75 713.64 201.00 713.40   Q 194.38 713.29 184.00 713.82   Q 178.69 714.10 174.61 713.29   A 6.53 6.50 74.2 0 1 171.06 711.30   Q 170.71 710.92 169.28 708.83   C 164.17 701.33 154.46 706.59 148.68 709.64   C 144.13 712.04 139.59 713.13 135.37 711.45   Q 127.95 708.51 123.51 706.77   C 113.51 702.85 102.90 706.56 99.61 717.11   C 97.83 722.81 97.86 725.23 93.83 729.06   Q 91.89 730.91 88.44 732.51   C 69.76 741.15 48.18 739.49 30.99 751.26   C 18.20 760.02 19.56 778.31 17.68 791.80   C 16.78 798.27 15.98 801.98 16.11 807.14   Q 16.32 815.15 18.10 823.37   Q 24.36 852.17 25.86 859.42   C 27.17 865.77 28.83 873.83 26.66 879.94   C 24.97 884.67 26.23 888.94 27.55 894.03" data-svg-id="svg-elem-1767364856611-ywnv94vzi" id="svg-elem-1767364398449-d7s2yc5oi"/>
<path stroke="#6abece" vector-effect="non-scaling-stroke" d="   M 540.27 689.32   C 528.35 680.66 512.97 674.52 498.27 679.65" data-svg-id="svg-elem-1767364856611-hdsf71pke" id="svg-elem-1767364398449-xin0jelmr"/>
<path stroke="#6abece" vector-effect="non-scaling-stroke" d="   M 706.92 650.55   L 667.88 623.43" data-svg-id="svg-elem-1767364856611-ila2plunh" id="svg-elem-1767364398449-dka6whz68"/>
<path stroke="#54abd6" vector-effect="non-scaling-stroke" d="   M 619.36 733.26   C 599.09 728.29 580.41 723.95 560.50 721.25" data-svg-id="svg-elem-1767364856611-ox3ckfty9" id="svg-elem-1767364398449-wqflfgvb4"/>
<path stroke="#54abd6" vector-effect="non-scaling-stroke" d="   M 508.14 742.58   Q 489.17 735.90 469.13 733.54" data-svg-id="svg-elem-1767364856611-qtqaceen8" id="svg-elem-1767364398449-gqc7gdg7q"/>
<path stroke="#9dcae5" vector-effect="non-scaling-stroke" d="   M 409.82 784.25   Q 385.28 799.36 377.94 802.74   Q 373.89 804.60 373.98 808.06   Q 374.03 810.05 374.38 810.87   Q 374.90 812.11 376.77 812.09   Q 394.30 811.89 407.01 811.62   Q 433.91 811.05 462.31 804.82   Q 491.05 798.51 511.93 791.07" data-svg-id="svg-elem-1767364856611-prvnuoelw" id="svg-elem-1767364398449-3iqsrrxgp"/>
</g>
<path fill="rgb(253, 247, 239)" d="   M 1024.00 0.00   L 1024.00 1024.00   L 0.00 1024.00   L 0.00 802.00   Q 1.74 808.29 3.46 814.58   Q 4.95 820.04 6.30 827.29   Q 10.05 847.42 14.69 861.34   C 17.68 870.31 21.93 883.23 27.55 894.03   Q 34.92 909.05 45.18 922.33   C 49.16 927.48 53.65 933.96 57.72 938.81   Q 72.27 956.10 90.12 970.88   Q 100.35 979.35 106.84 983.16   Q 149.64 1008.24 198.29 1017.67   Q 208.47 1019.64 215.54 1019.81   Q 241.75 1020.46 266.63 1021.89   Q 273.09 1022.27 278.10 1022.14   C 287.97 1021.90 296.72 1022.34 306.80 1022.34   Q 356.62 1022.29 406.44 1023.06   Q 462.34 1023.48 518.25 1023.24   Q 533.90 1023.17 549.75 1023.14   Q 619.51 1023.03 637.72 1022.99   Q 647.44 1022.97 654.23 1023.01   Q 684.65 1023.18 714.75 1022.81   Q 725.49 1022.68 737.88 1022.76   C 749.80 1022.85 760.61 1022.24 772.01 1021.51   Q 781.31 1020.67 790.70 1020.39   Q 801.86 1020.06 807.22 1019.31   Q 824.38 1016.90 846.99 1013.33   Q 852.13 1012.52 857.99 1010.65   C 864.52 1008.57 871.13 1007.50 877.01 1004.66   Q 881.59 1002.45 885.06 1001.45   C 892.35 999.33 897.99 996.08 904.93 992.86   Q 907.97 991.46 913.29 988.29   Q 916.57 986.35 922.09 983.33   Q 927.58 980.33 937.09 972.58   Q 945.96 965.34 958.14 953.15   Q 963.77 947.51 974.80 933.37   Q 982.31 923.74 988.95 911.72   Q 998.25 894.90 1002.25 884.75   Q 1008.74 868.27 1013.28 851.02   C 1017.03 836.80 1018.37 822.49 1018.93 807.97   Q 1019.94 800.12 1020.25 792.23   Q 1020.93 775.39 1021.67 758.54   C 1022.39 744.43 1021.54 727.19 1021.73 716.38   C 1021.95 702.89 1021.21 692.62 1021.54 680.47   Q 1021.63 676.93 1021.42 660.98   C 1021.14 640.07 1021.75 609.54 1021.39 588.63   C 1020.91 560.24 1021.90 533.85 1021.77 504.09   Q 1021.61 465.79 1021.55 450.77   C 1021.52 441.89 1020.93 430.90 1021.05 423.32   Q 1021.63 383.71 1020.44 343.99   C 1020.00 329.21 1020.42 322.85 1020.87 306.08   Q 1021.28 290.49 1019.55 275.96   C 1018.75 269.31 1018.99 263.58 1018.48 256.36   Q 1017.44 241.81 1015.98 223.59   C 1014.96 210.80 1012.56 198.22 1009.16 187.30   Q 1007.65 182.44 1004.85 173.84   C 1000.83 161.45 996.93 153.26 990.04 138.78   C 985.81 129.88 980.93 123.09 975.22 115.78   Q 965.19 102.97 956.78 93.17   C 949.69 84.91 937.17 73.64 925.98 65.12   C 919.01 59.82 909.22 51.78 899.34 46.11   Q 890.25 40.90 885.13 37.78   Q 863.59 24.69 838.75 18.33   Q 834.59 17.27 831.71 16.83   C 825.25 15.83 819.67 14.28 814.01 13.94   Q 806.14 13.46 796.27 13.39   A 0.18 0.18 0.0 0 0 796.18 13.73   Q 800.81 16.35 804.55 17.06   C 812.20 18.51 819.05 19.41 826.85 21.70   Q 843.47 26.56 849.41 28.59   Q 864.73 33.84 870.19 36.85   Q 875.83 39.95 892.16 49.83   C 909.76 60.48 925.86 73.76 937.21 90.81   C 941.19 96.80 946.60 106.87 938.47 111.88   C 933.39 115.01 929.76 116.84 926.22 120.28   Q 922.46 123.93 918.14 126.85   C 908.24 133.54 906.01 141.12 902.56 152.13   C 900.12 159.93 896.34 164.53 891.49 171.93   C 886.61 179.38 885.85 188.48 883.90 199.75   C 881.91 211.23 874.29 203.30 870.42 208.47   Q 868.97 210.41 868.17 212.22   C 862.97 224.13 857.41 236.15 847.30 243.94   C 839.73 249.78 835.47 244.01 831.95 237.75   C 830.89 232.63 830.22 226.91 828.19 222.06   A 1.83 1.75 4.8 0 0 827.42 221.19   Q 825.89 220.30 823.99 220.31   Q 798.63 220.35 797.88 220.36   C 786.24 220.61 779.27 221.51 765.87 223.28   Q 757.08 224.44 747.69 226.66   Q 727.23 231.49 722.23 232.99   Q 690.27 242.57 665.89 256.22   Q 648.14 266.16 641.49 271.48   Q 626.69 283.32 623.81 286.06   Q 599.14 309.55 588.45 322.67   Q 581.60 331.08 572.32 345.44   C 569.00 350.59 565.41 358.02 561.85 364.20   L 562.53 362.07   Q 562.63 361.83 562.74 361.61   Q 562.74 361.60 562.74 361.61   Q 562.63 361.83 562.53 362.07   Q 559.33 368.80 555.63 375.28   Q 554.00 378.12 553.14 380.62   C 550.74 387.60 547.66 394.14 545.82 401.31   Q 538.76 419.70 534.11 439.26   Q 528.80 460.77 526.12 480.62   Q 523.14 502.68 520.38 531.43   Q 513.25 535.93 506.13 537.18   Q 493.79 539.33 485.22 542.01   L 492.73 476.98   Q 495.03 456.50 496.03 435.92   C 496.19 432.57 496.90 428.57 497.39 425.31   C 498.02 421.10 495.90 417.95 493.25 414.83   C 489.99 410.99 488.49 409.13 484.47 403.71   Q 481.85 400.18 478.62 396.71   Q 464.36 381.34 457.44 375.20   Q 448.76 367.48 433.31 355.79   C 428.10 351.86 421.35 348.01 415.96 344.27   Q 409.79 339.98 402.69 336.43   C 394.52 332.34 389.53 328.80 381.86 326.29   Q 375.91 324.35 369.21 321.39   C 362.88 318.60 356.18 317.38 350.67 315.33   Q 345.00 313.21 336.62 311.32   Q 324.04 308.48 321.97 308.12   Q 276.70 300.17 231.38 304.30   C 222.71 305.08 212.24 306.94 203.01 307.98   Q 197.24 308.63 188.78 309.93   A 2.11 2.11 0.0 0 0 187.06 311.48   Q 186.29 314.43 185.99 317.99   C 184.30 338.28 186.15 356.98 189.19 378.56   Q 192.90 404.92 200.07 429.45   Q 201.42 434.05 207.57 453.38   Q 208.00 454.74 209.13 457.50   C 210.48 460.78 211.06 463.92 213.31 467.27   Q 213.83 468.04 214.48 471.39   A 2.63 2.50 -65.4 0 0 214.72 472.09   L 224.29 490.23   L 227.17 497.38   A 1.13 1.13 0.0 0 1 227.15 498.31   C 223.63 505.97 222.91 511.65 221.65 520.62   C 220.93 525.70 218.46 535.05 212.14 535.88   C 208.60 536.35 205.86 534.21 202.81 533.88   A 5.56 5.45 -45.6 0 0 201.37 533.91   Q 193.50 535.06 193.49 535.06   Q 182.78 535.47 172.24 536.74   C 165.48 537.56 161.07 536.07 154.71 533.76   C 145.39 530.39 143.88 542.28 134.93 541.16   C 130.07 540.55 124.08 538.37 119.00 537.96   Q 111.60 537.37 104.27 539.26   Q 82.46 544.89 69.29 548.99   C 63.39 550.82 57.17 554.03 53.49 559.01   C 46.31 568.75 47.18 581.81 35.57 587.72   C 22.96 594.15 18.41 577.33 16.91 569.01   Q 14.77 557.21 14.13 542.70   Q 13.18 521.35 12.64 499.95   Q 15.36 455.16 14.89 412.85   C 14.74 399.18 13.99 381.10 14.23 365.26   Q 14.82 326.48 14.50 318.33   Q 13.80 300.84 13.32 275.03   C 12.90 252.57 14.23 231.11 19.72 209.88   Q 24.41 191.73 26.12 185.33   C 27.28 180.99 30.04 175.03 31.90 169.85   Q 38.37 151.83 45.93 137.89   Q 50.12 130.18 58.42 118.10   C 63.47 110.75 70.21 105.14 75.26 97.92   C 81.89 88.44 90.69 79.24 98.51 70.76   Q 111.72 56.42 128.21 47.50   C 143.70 39.13 153.89 33.35 168.48 28.81   C 177.06 26.14 183.98 22.97 193.08 20.05   Q 201.53 17.35 203.34 16.05   A 0.52 0.52 0.0 0 0 203.11 15.12   C 199.49 14.61 194.69 15.44 188.17 16.20   C 179.00 17.26 172.78 20.14 162.09 24.04   Q 151.67 27.85 146.92 30.30   Q 136.93 35.47 133.15 37.14   C 122.55 41.82 113.74 48.42 103.54 55.24   C 95.96 60.31 89.17 66.67 81.81 73.06   Q 73.13 80.59 62.83 92.08   Q 52.06 104.10 47.08 112.31   C 40.79 122.71 34.70 132.10 30.16 141.80   C 23.86 155.25 19.29 164.83 15.57 176.83   C 9.07 197.82 5.29 218.15 1.92 241.91   Q 0.70 250.58 0.00 267.38   L 0.00 0.00   L 1024.00 0.00   Z" data-svg-id="svg-elem-1767364856611-8rjavdvoa" id="svg-elem-1767364398449-jfre1fl7y" data-original-fill="rgb(253, 247, 239)"/>
<path fill="rgb(246, 244, 239)" d="   M 1021.67 758.54   Q 1020.14 607.07 1020.59 567.58   C 1021.24 511.67 1020.35 464.40 1018.99 413.84   C 1018.32 389.13 1019.00 362.86 1016.26 337.29   A 0.29 0.29 0.0 0 0 1015.70 337.24   Q 1015.25 338.67 1015.11 341.02   C 1013.27 370.90 1013.05 396.36 1013.01 431.27   C 1012.98 461.89 1012.23 498.79 1011.68 520.42   Q 1011.44 530.13 1010.60 537.98   C 1010.22 541.61 1009.30 546.84 1006.43 549.56   C 1004.33 551.56 999.37 552.14 997.08 553.30   C 990.57 556.58 985.98 563.91 982.96 570.51   C 981.46 573.81 980.90 578.86 979.71 581.92   Q 977.64 587.27 973.40 590.49   C 965.77 596.27 955.21 599.98 945.81 600.70   C 939.71 601.17 936.64 598.48 935.85 592.51   C 935.54 590.20 935.33 586.14 933.91 584.46   A 1.10 1.10 0.0 0 0 932.29 584.40   Q 931.31 585.38 930.98 586.65   C 928.72 595.11 927.29 603.58 919.25 608.59   C 915.05 611.20 907.99 612.40 902.46 614.21   Q 896.73 616.08 889.06 623.13   Q 885.85 626.09 884.14 626.64   Q 876.61 629.09 869.60 633.99   C 864.44 637.59 860.96 641.66 854.23 641.99   Q 846.37 642.38 838.98 639.07   C 828.77 634.50 824.38 632.20 815.16 631.28   Q 809.88 630.75 789.12 627.55   C 781.30 626.34 773.58 625.89 766.78 627.80   Q 759.26 629.92 752.15 630.99   Q 748.50 631.53 745.10 630.51   C 740.49 629.11 742.84 625.52 744.76 622.70   Q 748.21 617.63 750.38 615.59   Q 755.44 610.82 757.14 609.02   Q 759.78 606.23 757.05 603.94   Q 753.50 600.94 746.44 598.34   L 764.03 569.52   Q 770.73 557.87 777.23 546.26   Q 779.59 542.04 780.94 539.13   C 784.84 530.73 788.73 523.13 793.80 510.80   C 795.83 505.87 800.09 498.77 802.34 492.54   Q 806.43 481.16 809.97 472.45   C 812.99 465.00 814.18 458.53 817.05 450.51   C 820.03 442.19 821.84 433.13 823.88 425.43   Q 831.49 396.66 834.48 377.85   Q 841.20 335.61 838.53 289.54   Q 838.41 287.46 838.22 285.49   Q 836.22 261.44 831.95 237.75   C 835.47 244.01 839.73 249.78 847.30 243.94   C 857.41 236.15 862.97 224.13 868.17 212.22   Q 868.97 210.41 870.42 208.47   C 874.29 203.30 881.91 211.23 883.90 199.75   C 885.85 188.48 886.61 179.38 891.49 171.93   C 896.34 164.53 900.12 159.93 902.56 152.13   C 906.01 141.12 908.24 133.54 918.14 126.85   Q 922.46 123.93 926.22 120.28   C 929.76 116.84 933.39 115.01 938.47 111.88   C 946.60 106.87 941.19 96.80 937.21 90.81   C 925.86 73.76 909.76 60.48 892.16 49.83   Q 875.83 39.95 870.19 36.85   Q 864.73 33.84 849.41 28.59   Q 843.47 26.56 826.85 21.70   C 819.05 19.41 812.20 18.51 804.55 17.06   Q 800.81 16.35 796.18 13.73   A 0.18 0.18 0.0 0 1 796.27 13.39   Q 806.14 13.46 814.01 13.94   C 819.67 14.28 825.25 15.83 831.71 16.83   Q 834.59 17.27 838.75 18.33   Q 863.59 24.69 885.13 37.78   Q 890.25 40.90 899.34 46.11   C 909.22 51.78 919.01 59.82 925.98 65.12   C 937.17 73.64 949.69 84.91 956.78 93.17   Q 965.19 102.97 975.22 115.78   C 980.93 123.09 985.81 129.88 990.04 138.78   C 996.93 153.26 1000.83 161.45 1004.85 173.84   Q 1007.65 182.44 1009.16 187.30   C 1012.56 198.22 1014.96 210.80 1015.98 223.59   Q 1017.44 241.81 1018.48 256.36   C 1018.99 263.58 1018.75 269.31 1019.55 275.96   Q 1021.28 290.49 1020.87 306.08   C 1020.42 322.85 1020.00 329.21 1020.44 343.99   Q 1021.63 383.71 1021.05 423.32   C 1020.93 430.90 1021.52 441.89 1021.55 450.77   Q 1021.61 465.79 1021.77 504.09   C 1021.90 533.85 1020.91 560.24 1021.39 588.63   C 1021.75 609.54 1021.14 640.07 1021.42 660.98   Q 1021.63 676.93 1021.54 680.47   C 1021.21 692.62 1021.95 702.89 1021.73 716.38   C 1021.54 727.19 1022.39 744.43 1021.67 758.54   Z" data-svg-id="svg-elem-1767364856611-a1scsobn4" id="svg-elem-1767364398449-rc5j11a3p" data-original-fill="rgb(246, 244, 239)"/>
<path fill="rgb(252, 240, 223)" d="   M 12.64 499.95   Q 11.33 558.44 9.23 616.88   Q 9.08 621.31 8.05 624.75   A 1.05 1.05 0.0 0 1 6.30 625.19   L 4.52 623.41   A 1.61 1.61 0.0 0 0 1.89 623.94   L 0.00 628.62   L 0.00 267.38   Q 0.70 250.58 1.92 241.91   C 5.29 218.15 9.07 197.82 15.57 176.83   C 19.29 164.83 23.86 155.25 30.16 141.80   C 34.70 132.10 40.79 122.71 47.08 112.31   Q 52.06 104.10 62.83 92.08   Q 73.13 80.59 81.81 73.06   C 89.17 66.67 95.96 60.31 103.54 55.24   C 113.74 48.42 122.55 41.82 133.15 37.14   Q 136.93 35.47 146.92 30.30   Q 151.67 27.85 162.09 24.04   C 172.78 20.14 179.00 17.26 188.17 16.20   C 194.69 15.44 199.49 14.61 203.11 15.12   A 0.52 0.52 0.0 0 1 203.34 16.05   Q 201.53 17.35 193.08 20.05   C 183.98 22.97 177.06 26.14 168.48 28.81   C 153.89 33.35 143.70 39.13 128.21 47.50   Q 111.72 56.42 98.51 70.76   C 90.69 79.24 81.89 88.44 75.26 97.92   C 70.21 105.14 63.47 110.75 58.42 118.10   Q 50.12 130.18 45.93 137.89   Q 38.37 151.83 31.90 169.85   C 30.04 175.03 27.28 180.99 26.12 185.33   Q 24.41 191.73 19.72 209.88   C 14.23 231.11 12.90 252.57 13.32 275.03   Q 13.80 300.84 14.50 318.33   Q 14.82 326.48 14.23 365.26   C 13.99 381.10 14.74 399.18 14.89 412.85   Q 15.36 455.16 12.64 499.95   Z" data-svg-id="svg-elem-1767364856611-oryjykbew" id="svg-elem-1767364398449-zl5684l5y" data-original-fill="rgb(252, 240, 223)"/>
<path fill="rgb(166, 215, 187)" d="   M 831.95 237.75   Q 836.22 261.44 838.22 285.49   C 826.71 284.45 819.53 288.16 812.19 297.36   C 806.14 304.94 798.51 315.88 794.40 322.14   C 783.60 338.58 779.78 348.54 769.25 372.23   C 760.74 391.38 749.39 406.04 730.72 415.70   Q 718.99 421.76 711.64 425.67   Q 699.02 432.38 690.36 444.21   Q 687.78 437.77 685.55 431.46   Q 683.60 425.95 677.53 417.19   C 667.60 402.88 649.50 392.16 631.86 398.10   Q 621.88 401.46 615.43 406.96   C 600.82 419.40 590.68 438.96 584.03 455.29   C 568.31 445.36 552.43 441.58 534.11 439.26   Q 538.76 419.70 545.82 401.31   L 555.24 377.98   A 0.04 0.04 0.0 0 1 555.29 377.95   L 555.53 378.05   A 0.25 0.25 0.0 0 1 555.66 378.38   C 554.84 380.25 553.76 382.56 553.87 382.75   A 0.09 0.09 0.0 0 0 554.03 382.75   L 561.85 364.20   C 565.41 358.02 569.00 350.59 572.32 345.44   Q 581.60 331.08 588.45 322.67   Q 599.14 309.55 623.81 286.06   Q 626.69 283.32 641.49 271.48   Q 648.14 266.16 665.89 256.22   Q 690.27 242.57 722.23 232.99   Q 727.23 231.49 747.69 226.66   Q 757.08 224.44 765.87 223.28   C 779.27 221.51 786.24 220.61 797.88 220.36   Q 798.63 220.35 823.99 220.31   Q 825.89 220.30 827.42 221.19   A 1.83 1.75 4.8 0 1 828.19 222.06   C 830.22 226.91 830.89 232.63 831.95 237.75   Z" data-svg-id="svg-elem-1767364856611-vtq0ya4f8" id="svg-elem-1767364398449-ieal1ilet" data-original-fill="rgb(166, 215, 187)"/>
<path fill="rgb(144, 210, 186)" d="   M 838.22 285.49   Q 838.41 287.46 838.53 289.54   Q 841.20 335.61 834.48 377.85   Q 831.49 396.66 823.88 425.43   C 821.84 433.13 820.03 442.19 817.05 450.51   C 814.18 458.53 812.99 465.00 809.97 472.45   Q 806.43 481.16 802.34 492.54   C 800.09 498.77 795.83 505.87 793.80 510.80   C 788.73 523.13 784.84 530.73 780.94 539.13   Q 779.59 542.04 777.23 546.26   Q 770.73 557.87 764.03 569.52   Q 741.58 568.82 724.32 567.29   Q 706.88 565.74 691.47 572.28   Q 696.82 551.33 699.10 529.88   C 700.31 518.44 699.94 505.36 699.76 495.30   C 699.56 484.20 696.89 472.76 695.15 461.65   Q 694.12 455.13 690.36 444.21   Q 699.02 432.38 711.64 425.67   Q 718.99 421.76 730.72 415.70   C 749.39 406.04 760.74 391.38 769.25 372.23   C 779.78 348.54 783.60 338.58 794.40 322.14   C 798.51 315.88 806.14 304.94 812.19 297.36   C 819.53 288.16 826.71 284.45 838.22 285.49   Z" data-svg-id="svg-elem-1767364856611-chikh7xqd" id="svg-elem-1767364398449-41l9w3rjc" data-original-fill="rgb(144, 210, 186)"/>
<path fill="rgb(130, 184, 227)" d="   M 492.73 476.98   Q 478.02 480.94 471.13 484.13   Q 466.23 486.40 454.29 492.02   C 445.17 496.33 432.22 498.07 420.69 498.59   Q 389.98 499.98 370.01 500.97   Q 351.11 501.91 334.70 500.61   Q 328.59 500.13 307.35 497.46   Q 295.19 495.93 278.50 495.44   Q 262.78 494.97 227.05 495.01   L 224.29 490.23   L 214.72 472.09   A 2.63 2.50 -65.4 0 1 214.48 471.39   Q 213.83 468.04 213.31 467.27   C 211.06 463.92 210.48 460.78 209.13 457.50   Q 208.00 454.74 207.57 453.38   Q 201.42 434.05 200.07 429.45   Q 192.90 404.92 189.19 378.56   C 186.15 356.98 184.30 338.28 185.99 317.99   Q 186.29 314.43 187.06 311.48   A 2.11 2.11 0.0 0 1 188.78 309.93   Q 197.24 308.63 203.01 307.98   C 212.24 306.94 222.71 305.08 231.38 304.30   Q 276.70 300.17 321.97 308.12   Q 324.04 308.48 336.62 311.32   Q 345.00 313.21 350.67 315.33   C 356.18 317.38 362.88 318.60 369.21 321.39   Q 375.91 324.35 381.86 326.29   C 389.53 328.80 394.52 332.34 402.69 336.43   Q 409.79 339.98 415.96 344.27   C 421.35 348.01 428.10 351.86 433.31 355.79   Q 448.76 367.48 457.44 375.20   Q 464.36 381.34 478.62 396.71   Q 481.85 400.18 484.47 403.71   C 488.49 409.13 489.99 410.99 493.25 414.83   C 495.90 417.95 498.02 421.10 497.39 425.31   C 496.90 428.57 496.19 432.57 496.03 435.92   Q 495.03 456.50 492.73 476.98   Z" data-svg-id="svg-elem-1767364856611-8yphtd7g3" id="svg-elem-1767364398449-8t9rw1wqg" data-original-fill="rgb(155, 192, 229)"/>
<path fill="rgb(235, 239, 231)" d="   M 1021.67 758.54   Q 1020.93 775.39 1020.25 792.23   Q 1019.94 800.12 1018.93 807.97   Q 1019.23 792.51 1018.16 777.12   C 1017.98 774.65 1017.60 769.33 1016.04 767.54   A 1.21 1.21 0.0 0 0 1014.06 767.78   Q 1011.76 772.24 1010.50 778.79   Q 1007.54 794.27 1005.81 800.49   C 1002.98 810.66 997.41 816.66 986.58 817.45   Q 978.59 818.04 967.79 818.65   Q 965.02 818.81 962.16 819.34   Q 950.16 821.58 927.14 824.33   C 917.17 825.52 910.10 827.17 901.41 831.93   Q 894.24 835.87 885.47 836.70   Q 877.56 837.46 867.30 838.14   Q 864.02 838.36 860.70 839.23   C 853.43 841.14 849.17 842.65 841.96 844.04   Q 830.63 846.23 825.69 848.01   C 818.74 850.53 814.16 852.94 802.82 858.60   Q 799.32 860.35 795.26 860.58   C 792.27 860.76 789.44 859.22 786.75 858.06   C 779.32 854.86 773.97 861.25 772.12 867.58   C 769.05 878.11 770.31 889.45 775.46 899.28   C 778.06 904.25 781.35 910.13 779.83 915.19   C 776.41 926.64 765.36 931.58 757.19 937.31   C 740.45 949.07 748.99 974.05 752.98 988.96   Q 753.85 992.19 754.56 1000.79   Q 755.17 1008.15 756.33 1010.49   C 759.11 1016.04 767.33 1019.60 772.01 1021.51   C 760.61 1022.24 749.80 1022.85 737.88 1022.76   Q 725.49 1022.68 714.75 1022.81   Q 684.65 1023.18 654.23 1023.01   Q 647.44 1022.97 637.72 1022.99   Q 619.51 1023.03 549.75 1023.14   Q 533.90 1023.17 518.25 1023.24   Q 462.34 1023.48 406.44 1023.06   L 359.69 1021.86   A 1.12 1.12 0.0 0 1 359.10 1019.80   Q 360.68 1018.74 362.69 1018.23   Q 367.12 1017.11 383.35 1014.11   C 394.64 1012.02 402.35 1008.91 404.89 996.89   Q 407.10 986.49 408.44 980.57   C 409.68 975.12 411.83 971.14 416.46 967.77   C 419.86 965.30 422.30 963.10 424.14 960.02   C 427.05 955.14 429.81 948.80 432.69 944.31   C 436.70 938.04 441.80 931.71 440.62 924.20   C 440.11 920.95 437.43 916.13 437.65 912.59   Q 437.99 906.96 443.00 902.46   C 447.89 898.05 454.65 893.65 459.40 889.20   C 463.38 885.46 470.38 879.32 476.49 874.53   C 480.07 871.72 484.27 868.86 485.26 866.46   A 1.10 1.09 23.0 0 0 484.68 865.04   Q 483.55 864.54 482.50 864.38   C 474.78 863.20 464.58 861.17 462.47 853.31   C 460.90 847.48 462.87 836.48 465.51 830.93   C 470.92 819.58 481.58 813.06 492.22 806.60   Q 499.43 802.22 511.93 791.07   C 525.54 785.49 539.20 779.98 552.44 773.76   Q 567.51 766.67 572.54 764.04   Q 597.53 750.96 619.36 733.26   Q 643.62 715.41 653.53 706.29   Q 661.47 698.98 669.33 692.32   C 673.52 688.77 677.14 684.51 680.07 681.08   Q 681.73 679.13 687.98 672.47   Q 697.93 661.86 706.92 650.55   Q 712.43 644.80 717.18 638.67   C 727.36 625.51 736.66 611.78 746.44 598.34   Q 753.50 600.94 757.05 603.94   Q 759.78 606.23 757.14 609.02   Q 755.44 610.82 750.38 615.59   Q 748.21 617.63 744.76 622.70   C 742.84 625.52 740.49 629.11 745.10 630.51   Q 748.50 631.53 752.15 630.99   Q 759.26 629.92 766.78 627.80   C 773.58 625.89 781.30 626.34 789.12 627.55   Q 809.88 630.75 815.16 631.28   C 824.38 632.20 828.77 634.50 838.98 639.07   Q 846.37 642.38 854.23 641.99   C 860.96 641.66 864.44 637.59 869.60 633.99   Q 876.61 629.09 884.14 626.64   Q 885.85 626.09 889.06 623.13   Q 896.73 616.08 902.46 614.21   C 907.99 612.40 915.05 611.20 919.25 608.59   C 927.29 603.58 928.72 595.11 930.98 586.65   Q 931.31 585.38 932.29 584.40   A 1.10 1.10 0.0 0 1 933.91 584.46   C 935.33 586.14 935.54 590.20 935.85 592.51   C 936.64 598.48 939.71 601.17 945.81 600.70   C 955.21 599.98 965.77 596.27 973.40 590.49   Q 977.64 587.27 979.71 581.92   C 980.90 578.86 981.46 573.81 982.96 570.51   C 985.98 563.91 990.57 556.58 997.08 553.30   C 999.37 552.14 1004.33 551.56 1006.43 549.56   C 1009.30 546.84 1010.22 541.61 1010.60 537.98   Q 1011.44 530.13 1011.68 520.42   C 1012.23 498.79 1012.98 461.89 1013.01 431.27   C 1013.05 396.36 1013.27 370.90 1015.11 341.02   Q 1015.25 338.67 1015.70 337.24   A 0.29 0.29 0.0 0 1 1016.26 337.29   C 1019.00 362.86 1018.32 389.13 1018.99 413.84   C 1020.35 464.40 1021.24 511.67 1020.59 567.58   Q 1020.14 607.07 1021.67 758.54   Z" data-svg-id="svg-elem-1767364856611-ra48pwnme" id="svg-elem-1767364398449-mh74rxupv" data-original-fill="rgb(235, 239, 231)"/>
<path fill="rgb(235, 239, 231)" d="   M 562.53 362.07   Q 562.63 361.83 562.74 361.61   Q 562.74 361.60 562.74 361.61   Q 562.63 361.83 562.53 362.07   Z" data-svg-id="svg-elem-1767364856611-c608kttdu" id="svg-elem-1767364398449-obbca7de5" data-original-fill="rgb(235, 239, 231)"/>
<path fill="rgb(227, 237, 231)" d="   M 562.53 362.07   L 561.85 364.20   L 554.03 382.75   A 0.09 0.09 0.0 0 1 553.87 382.75   C 553.76 382.56 554.84 380.25 555.66 378.38   A 0.25 0.25 0.0 0 0 555.53 378.05   L 555.29 377.95   A 0.04 0.04 0.0 0 0 555.24 377.98   L 545.82 401.31   C 547.66 394.14 550.74 387.60 553.14 380.62   Q 554.00 378.12 555.63 375.28   Q 559.33 368.80 562.53 362.07   Z" data-svg-id="svg-elem-1767364856611-04bpn2n91" id="svg-elem-1767364398449-2gyw9xszn" data-original-fill="rgb(227, 237, 231)"/>
<path fill="rgb(246, 244, 239)" d="   M 690.36 444.21   Q 694.12 455.13 695.15 461.65   C 696.89 472.76 699.56 484.20 699.76 495.30   C 699.94 505.36 700.31 518.44 699.10 529.88   Q 696.82 551.33 691.47 572.28   Q 683.04 599.47 667.88 623.43   Q 658.93 637.23 649.14 648.39   Q 630.18 670.01 607.80 689.29   Q 596.89 698.69 579.16 710.16   C 573.45 713.86 566.72 717.50 560.50 721.25   Q 539.15 732.50 517.13 742.42   Q 512.35 744.58 507.27 745.88   A 0.78 0.78 0.0 0 1 506.38 744.78   Q 506.95 743.64 508.14 742.58   Q 513.90 736.82 518.32 729.83   Q 530.70 710.26 540.27 689.32   Q 547.22 674.01 549.30 666.50   Q 552.83 653.74 557.96 623.50   Q 559.37 615.15 561.42 599.48   Q 562.58 590.67 563.76 575.34   Q 564.83 561.54 566.42 547.84   Q 567.85 534.51 569.38 521.27   C 570.58 510.84 572.37 500.69 574.16 490.43   Q 575.86 480.64 584.03 455.29   C 590.68 438.96 600.82 419.40 615.43 406.96   Q 621.88 401.46 631.86 398.10   C 649.50 392.16 667.60 402.88 677.53 417.19   Q 683.60 425.95 685.55 431.46   Q 687.78 437.77 690.36 444.21   Z" data-svg-id="svg-elem-1767364856611-0rmgn685m" id="svg-elem-1767364398449-8chtqwbka" data-original-fill="rgb(246, 244, 239)"/>
<path fill="rgb(144, 210, 186)" d="   M 584.03 455.29   Q 575.86 480.64 574.16 490.43   C 572.37 500.69 570.58 510.84 569.38 521.27   Q 567.85 534.51 566.42 547.84   L 519.10 547.24   L 520.38 531.43   Q 523.14 502.68 526.12 480.62   Q 528.80 460.77 534.11 439.26   C 552.43 441.58 568.31 445.36 584.03 455.29   Z" data-svg-id="svg-elem-1767364856611-ur8e1qlfz" id="svg-elem-1767364398449-gr8kfypsy" data-original-fill="rgb(144, 210, 186)"/>
<path fill="rgb(130, 184, 227)" d="   M 492.73 476.98   L 485.22 542.01   L 481.26 575.97   Q 465.24 576.84 455.42 578.44   Q 431.98 582.24 409.33 585.08   C 404.20 585.72 398.26 586.80 393.86 587.64   C 380.25 590.26 366.26 587.86 353.16 582.74   Q 336.70 576.30 313.47 566.80   Q 294.51 559.03 274.01 559.07   Q 266.70 551.08 259.58 543.06   C 255.02 537.93 251.51 532.92 247.42 527.86   Q 243.50 523.01 239.05 515.86   Q 232.74 505.72 227.05 495.01   Q 262.78 494.97 278.50 495.44   Q 295.19 495.93 307.35 497.46   Q 328.59 500.13 334.70 500.61   Q 351.11 501.91 370.01 500.97   Q 389.98 499.98 420.69 498.59   C 432.22 498.07 445.17 496.33 454.29 492.02   Q 466.23 486.40 471.13 484.13   Q 478.02 480.94 492.73 476.98   Z" data-svg-id="svg-elem-1767364856611-zryggwx6e" id="svg-elem-1767364398449-xg17wa8gw" data-original-fill="rgb(130, 184, 227)"/>
<path fill="rgb(246, 244, 239)" d="   M 227.05 495.01   Q 232.74 505.72 239.05 515.86   Q 243.50 523.01 247.42 527.86   C 251.51 532.92 255.02 537.93 259.58 543.06   Q 266.70 551.08 274.01 559.07   Q 276.17 561.65 282.41 567.84   Q 309.80 595.03 340.66 612.82   C 346.93 616.44 352.31 618.52 359.11 622.05   Q 363.90 624.54 373.17 628.46   Q 387.54 634.52 400.50 638.95   Q 406.19 640.89 409.28 641.54   C 416.28 643.02 421.47 645.64 428.60 646.83   Q 436.54 648.15 445.88 649.78   C 451.25 650.72 456.10 650.39 461.50 651.70   Q 464.45 652.42 467.08 652.71   A 1.83 1.82 -82.2 0 0 469.08 651.19   L 481.26 575.97   L 485.22 542.01   Q 493.79 539.33 506.13 537.18   Q 513.25 535.93 520.38 531.43   L 519.10 547.24   Q 515.87 586.62 511.04 625.74   C 510.33 631.48 509.44 637.48 508.05 643.05   Q 504.96 655.40 503.92 661.59   A 0.08 0.05 -73.8 0 1 503.84 661.67   Q 503.76 661.59 503.73 661.53   A 0.16 0.09 -62.5 0 0 503.53 661.66   Q 501.20 670.58 498.27 679.65   C 494.05 689.95 490.07 700.97 484.45 710.46   Q 478.34 720.78 469.13 733.54   Q 460.02 745.52 444.29 759.79   Q 426.96 775.51 409.82 784.25   Q 402.42 783.12 397.19 777.88   C 387.42 768.08 377.45 755.55 363.51 751.50   C 357.24 749.67 346.51 750.61 340.64 749.52   C 328.62 747.28 320.92 742.89 310.14 737.43   C 304.48 734.56 297.27 731.87 291.55 729.30   C 287.53 727.49 284.06 725.13 281.16 723.05   Q 277.92 720.72 275.76 721.97   C 271.35 724.54 268.89 729.96 269.45 735.48   C 269.81 738.97 271.25 744.88 266.15 745.83   C 260.36 746.92 257.33 742.87 256.93 737.20   C 256.49 731.10 256.62 726.75 255.17 721.05   C 253.40 714.12 248.45 712.63 241.77 712.76   C 227.85 713.04 215.75 713.64 201.00 713.40   Q 194.38 713.29 184.00 713.82   Q 178.69 714.10 174.61 713.29   A 6.53 6.50 74.2 0 1 171.06 711.30   Q 170.71 710.92 169.28 708.83   C 164.17 701.33 154.46 706.59 148.68 709.64   C 144.13 712.04 139.59 713.13 135.37 711.45   Q 127.95 708.51 123.51 706.77   C 113.51 702.85 102.90 706.56 99.61 717.11   C 97.83 722.81 97.86 725.23 93.83 729.06   Q 91.89 730.91 88.44 732.51   C 69.76 741.15 48.18 739.49 30.99 751.26   C 18.20 760.02 19.56 778.31 17.68 791.80   C 16.78 798.27 15.98 801.98 16.11 807.14   Q 16.32 815.15 18.10 823.37   Q 24.36 852.17 25.86 859.42   C 27.17 865.77 28.83 873.83 26.66 879.94   C 24.97 884.67 26.23 888.94 27.55 894.03   C 21.93 883.23 17.68 870.31 14.69 861.34   Q 10.05 847.42 6.30 827.29   Q 4.95 820.04 3.46 814.58   Q 1.74 808.29 0.00 802.00   L 0.00 628.62   L 1.89 623.94   A 1.61 1.61 0.0 0 1 4.52 623.41   L 6.30 625.19   A 1.05 1.05 0.0 0 0 8.05 624.75   Q 9.08 621.31 9.23 616.88   Q 11.33 558.44 12.64 499.95   Q 13.18 521.35 14.13 542.70   Q 14.77 557.21 16.91 569.01   C 18.41 577.33 22.96 594.15 35.57 587.72   C 47.18 581.81 46.31 568.75 53.49 559.01   C 57.17 554.03 63.39 550.82 69.29 548.99   Q 82.46 544.89 104.27 539.26   Q 111.60 537.37 119.00 537.96   C 124.08 538.37 130.07 540.55 134.93 541.16   C 143.88 542.28 145.39 530.39 154.71 533.76   C 161.07 536.07 165.48 537.56 172.24 536.74   Q 182.78 535.47 193.49 535.06   Q 193.50 535.06 201.37 533.91   A 5.56 5.45 -45.6 0 1 202.81 533.88   C 205.86 534.21 208.60 536.35 212.14 535.88   C 218.46 535.05 220.93 525.70 221.65 520.62   C 222.91 511.65 223.63 505.97 227.15 498.31   A 1.13 1.13 0.0 0 0 227.17 497.38   L 224.29 490.23   L 227.05 495.01   Z" data-svg-id="svg-elem-1767364856611-swq8g0qin" id="svg-elem-1767364398449-8v6zpdjjf" data-original-fill="rgb(246, 244, 239)"/>
<path fill="rgb(120, 198, 201)" d="   M 566.42 547.84   Q 564.83 561.54 563.76 575.34   Q 562.58 590.67 561.42 599.48   Q 559.37 615.15 557.96 623.50   Q 552.83 653.74 549.30 666.50   Q 547.22 674.01 540.27 689.32   C 528.35 680.66 512.97 674.52 498.27 679.65   Q 501.20 670.58 503.53 661.66   A 0.16 0.09 -62.5 0 1 503.73 661.53   Q 503.76 661.59 503.84 661.67   A 0.08 0.05 -73.8 0 0 503.92 661.59   Q 504.96 655.40 508.05 643.05   C 509.44 637.48 510.33 631.48 511.04 625.74   Q 515.87 586.62 519.10 547.24   L 566.42 547.84   Z" data-svg-id="svg-elem-1767364856611-xp5rhdl1p" id="svg-elem-1767364398449-78mqqyuds" data-original-fill="rgb(120, 198, 201)"/>
<path fill="rgb(92, 182, 211)" d="   M 481.26 575.97   L 469.08 651.19   A 1.83 1.82 -82.2 0 1 467.08 652.71   Q 464.45 652.42 461.50 651.70   C 456.10 650.39 451.25 650.72 445.88 649.78   Q 436.54 648.15 428.60 646.83   C 421.47 645.64 416.28 643.02 409.28 641.54   Q 406.19 640.89 400.50 638.95   Q 387.54 634.52 373.17 628.46   Q 363.90 624.54 359.11 622.05   C 352.31 618.52 346.93 616.44 340.66 612.82   Q 309.80 595.03 282.41 567.84   Q 276.17 561.65 274.01 559.07   Q 294.51 559.03 313.47 566.80   Q 336.70 576.30 353.16 582.74   C 366.26 587.86 380.25 590.26 393.86 587.64   C 398.26 586.80 404.20 585.72 409.33 585.08   Q 431.98 582.24 455.42 578.44   Q 465.24 576.84 481.26 575.97   Z" data-svg-id="svg-elem-1767364856611-6sbe4zshh" id="svg-elem-1767364398449-lnccpdflu" data-original-fill="rgb(92, 182, 211)"/>
<path fill="rgb(120, 198, 201)" d="   M 764.03 569.52   L 746.44 598.34   C 736.66 611.78 727.36 625.51 717.18 638.67   Q 712.43 644.80 706.92 650.55   L 667.88 623.43   Q 683.04 599.47 691.47 572.28   Q 706.88 565.74 724.32 567.29   Q 741.58 568.82 764.03 569.52   Z" data-svg-id="svg-elem-1767364856611-i31oq7u6x" id="svg-elem-1767364398449-dt1fhs0p5" data-original-fill="rgb(120, 198, 201)"/>
<path fill="rgb(92, 182, 211)" d="   M 706.92 650.55   Q 697.93 661.86 687.98 672.47   Q 681.73 679.13 680.07 681.08   C 677.14 684.51 673.52 688.77 669.33 692.32   Q 661.47 698.98 653.53 706.29   Q 643.62 715.41 619.36 733.26   C 599.09 728.29 580.41 723.95 560.50 721.25   C 566.72 717.50 573.45 713.86 579.16 710.16   Q 596.89 698.69 607.80 689.29   Q 630.18 670.01 649.14 648.39   Q 658.93 637.23 667.88 623.43   L 706.92 650.55   Z" data-svg-id="svg-elem-1767364856611-vvj9ukwm2" id="svg-elem-1767364398449-4wwdy5sra" data-original-fill="rgb(92, 182, 211)"/>
<path fill="rgb(92, 182, 211)" d="   M 540.27 689.32   Q 530.70 710.26 518.32 729.83   Q 513.90 736.82 508.14 742.58   Q 489.17 735.90 469.13 733.54   Q 478.34 720.78 484.45 710.46   C 490.07 700.97 494.05 689.95 498.27 679.65   C 512.97 674.52 528.35 680.66 540.27 689.32   Z" data-svg-id="svg-elem-1767364856611-te8klhdbp" id="svg-elem-1767364398449-k5t5p62q3" data-original-fill="rgb(92, 182, 211)"/>
<path fill="rgb(239, 243, 241)" d="   M 409.82 784.25   Q 385.28 799.36 377.94 802.74   Q 373.89 804.60 373.98 808.06   Q 374.03 810.05 374.38 810.87   Q 374.90 812.11 376.77 812.09   Q 394.30 811.89 407.01 811.62   Q 433.91 811.05 462.31 804.82   Q 491.05 798.51 511.93 791.07   Q 499.43 802.22 492.22 806.60   C 481.58 813.06 470.92 819.58 465.51 830.93   C 462.87 836.48 460.90 847.48 462.47 853.31   C 464.58 861.17 474.78 863.20 482.50 864.38   Q 483.55 864.54 484.68 865.04   A 1.10 1.09 23.0 0 1 485.26 866.46   C 484.27 868.86 480.07 871.72 476.49 874.53   C 470.38 879.32 463.38 885.46 459.40 889.20   C 454.65 893.65 447.89 898.05 443.00 902.46   Q 437.99 906.96 437.65 912.59   C 437.43 916.13 440.11 920.95 440.62 924.20   C 441.80 931.71 436.70 938.04 432.69 944.31   C 429.81 948.80 427.05 955.14 424.14 960.02   C 422.30 963.10 419.86 965.30 416.46 967.77   C 411.83 971.14 409.68 975.12 408.44 980.57   Q 407.10 986.49 404.89 996.89   C 402.35 1008.91 394.64 1012.02 383.35 1014.11   Q 367.12 1017.11 362.69 1018.23   Q 360.68 1018.74 359.10 1019.80   A 1.12 1.12 0.0 0 0 359.69 1021.86   L 406.44 1023.06   Q 356.62 1022.29 306.80 1022.34   C 296.72 1022.34 287.97 1021.90 278.10 1022.14   Q 273.09 1022.27 266.63 1021.89   Q 241.75 1020.46 215.54 1019.81   Q 208.47 1019.64 198.29 1017.67   Q 149.64 1008.24 106.84 983.16   Q 100.35 979.35 90.12 970.88   Q 72.27 956.10 57.72 938.81   C 53.65 933.96 49.16 927.48 45.18 922.33   Q 34.92 909.05 27.55 894.03   C 26.23 888.94 24.97 884.67 26.66 879.94   C 28.83 873.83 27.17 865.77 25.86 859.42   Q 24.36 852.17 18.10 823.37   Q 16.32 815.15 16.11 807.14   C 15.98 801.98 16.78 798.27 17.68 791.80   C 19.56 778.31 18.20 760.02 30.99 751.26   C 48.18 739.49 69.76 741.15 88.44 732.51   Q 91.89 730.91 93.83 729.06   C 97.86 725.23 97.83 722.81 99.61 717.11   C 102.90 706.56 113.51 702.85 123.51 706.77   Q 127.95 708.51 135.37 711.45   C 139.59 713.13 144.13 712.04 148.68 709.64   C 154.46 706.59 164.17 701.33 169.28 708.83   Q 170.71 710.92 171.06 711.30   A 6.53 6.50 74.2 0 0 174.61 713.29   Q 178.69 714.10 184.00 713.82   Q 194.38 713.29 201.00 713.40   C 215.75 713.64 227.85 713.04 241.77 712.76   C 248.45 712.63 253.40 714.12 255.17 721.05   C 256.62 726.75 256.49 731.10 256.93 737.20   C 257.33 742.87 260.36 746.92 266.15 745.83   C 271.25 744.88 269.81 738.97 269.45 735.48   C 268.89 729.96 271.35 724.54 275.76 721.97   Q 277.92 720.72 281.16 723.05   C 284.06 725.13 287.53 727.49 291.55 729.30   C 297.27 731.87 304.48 734.56 310.14 737.43   C 320.92 742.89 328.62 747.28 340.64 749.52   C 346.51 750.61 357.24 749.67 363.51 751.50   C 377.45 755.55 387.42 768.08 397.19 777.88   Q 402.42 783.12 409.82 784.25   Z" data-svg-id="svg-elem-1767364856611-p6tjfbrhz" id="svg-elem-1767364398449-ihauq5oww" data-original-fill="rgb(239, 243, 241)"/>
<path fill="rgb(75, 160, 217)" d="   M 619.36 733.26   Q 597.53 750.96 572.54 764.04   Q 567.51 766.67 552.44 773.76   C 539.20 779.98 525.54 785.49 511.93 791.07   Q 491.05 798.51 462.31 804.82   Q 433.91 811.05 407.01 811.62   Q 394.30 811.89 376.77 812.09   Q 374.90 812.11 374.38 810.87   Q 374.03 810.05 373.98 808.06   Q 373.89 804.60 377.94 802.74   Q 385.28 799.36 409.82 784.25   Q 426.96 775.51 444.29 759.79   Q 460.02 745.52 469.13 733.54   Q 489.17 735.90 508.14 742.58   Q 506.95 743.64 506.38 744.78   A 0.78 0.78 0.0 0 0 507.27 745.88   Q 512.35 744.58 517.13 742.42   Q 539.15 732.50 560.50 721.25   C 580.41 723.95 599.09 728.29 619.36 733.26   Z" data-svg-id="svg-elem-1767364856611-q7bpurtym" id="svg-elem-1767364398449-7ewozowc6" data-original-fill="rgb(75, 160, 217)"/>
<path fill="rgb(227, 237, 231)" d="   M 1018.93 807.97   C 1018.37 822.49 1017.03 836.80 1013.28 851.02   Q 1008.74 868.27 1002.25 884.75   Q 998.25 894.90 988.95 911.72   Q 982.31 923.74 974.80 933.37   Q 963.77 947.51 958.14 953.15   Q 945.96 965.34 937.09 972.58   Q 927.58 980.33 922.09 983.33   Q 916.57 986.35 913.29 988.29   Q 907.97 991.46 904.93 992.86   C 897.99 996.08 892.35 999.33 885.06 1001.45   Q 881.59 1002.45 877.01 1004.66   C 871.13 1007.50 864.52 1008.57 857.99 1010.65   Q 852.13 1012.52 846.99 1013.33   Q 824.38 1016.90 807.22 1019.31   Q 801.86 1020.06 790.70 1020.39   Q 781.31 1020.67 772.01 1021.51   C 767.33 1019.60 759.11 1016.04 756.33 1010.49   Q 755.17 1008.15 754.56 1000.79   Q 753.85 992.19 752.98 988.96   C 748.99 974.05 740.45 949.07 757.19 937.31   C 765.36 931.58 776.41 926.64 779.83 915.19   C 781.35 910.13 778.06 904.25 775.46 899.28   C 770.31 889.45 769.05 878.11 772.12 867.58   C 773.97 861.25 779.32 854.86 786.75 858.06   C 789.44 859.22 792.27 860.76 795.26 860.58   Q 799.32 860.35 802.82 858.60   C 814.16 852.94 818.74 850.53 825.69 848.01   Q 830.63 846.23 841.96 844.04   C 849.17 842.65 853.43 841.14 860.70 839.23   Q 864.02 838.36 867.30 838.14   Q 877.56 837.46 885.47 836.70   Q 894.24 835.87 901.41 831.93   C 910.10 827.17 917.17 825.52 927.14 824.33   Q 950.16 821.58 962.16 819.34   Q 965.02 818.81 967.79 818.65   Q 978.59 818.04 986.58 817.45   C 997.41 816.66 1002.98 810.66 1005.81 800.49   Q 1007.54 794.27 1010.50 778.79   Q 1011.76 772.24 1014.06 767.78   A 1.21 1.21 0.0 0 1 1016.04 767.54   C 1017.60 769.33 1017.98 774.65 1018.16 777.12   Q 1019.23 792.51 1018.93 807.97   Z" data-svg-id="svg-elem-1767364856611-l63c3ic3z" id="svg-elem-1767364398449-09w9t3h2h" data-original-fill="rgb(227, 237, 231)"/>
</svg>